<?xml version="1.0" ?><svg id="Layer_1" style="enable-background:new 0 0 1080 1080;" version="1.1" viewBox="0 0 1080 1080" xml:space="preserve" xmlns="http://www.w3.org/2000/svg" xmlns:xlink="http://www.w3.org/1999/xlink"><style type="text/css">
	.st0{fill:none;stroke:#131B24;stroke-width:1.5;stroke-linecap:round;stroke-linejoin:round;stroke-miterlimit:10;}
	.st1{fill:#126C0F;}
	.st2{fill:#0D590B;}
	.st3{fill:#FFFFFF;}
	.st4{fill:#FD4926;}
	.st5{fill:#FFFFFF;stroke:#131B24;stroke-width:1.5;stroke-linecap:round;stroke-linejoin:round;stroke-miterlimit:10;}
	.st6{fill:#FFBE8F;}
	.st7{fill:#B0CFF8;}
	.st8{fill:#131B24;}
	.st9{fill:#3B1308;}
	.st10{fill:#8F1A09;}
	.st11{fill:none;}
	.st12{fill:#543613;}
	.st13{fill:#A5B48D;}
	.st14{fill:#FBE099;}
	.st15{fill:#FBC143;}
	.st16{fill:#F9A525;}
	.st17{fill:#F9A525;stroke:#131B24;stroke-width:1.5;stroke-linecap:round;stroke-linejoin:round;stroke-miterlimit:10;}
	.st18{fill:none;stroke:#8F1A09;stroke-width:1.5;stroke-linecap:round;stroke-linejoin:round;stroke-miterlimit:10;}
	.st19{fill:#E8F1FD;}
	.st20{fill:#8FB8F4;}
	.st21{fill:none;stroke:#131B24;stroke-width:1.5;stroke-linecap:round;stroke-miterlimit:10;}
	.st22{fill:#1D2E59;}
	.st23{fill:#A66946;}
	.st24{fill:#5C301B;}
	.st25{fill:#BD3C2A;}
	.st26{fill:none;stroke:#8F1A09;stroke-width:1.5;stroke-linecap:round;stroke-miterlimit:10;}
	.st27{fill:none;stroke:#FFFFFF;stroke-width:1.5;stroke-linecap:round;stroke-linejoin:round;stroke-miterlimit:10;}
	.st28{fill:none;stroke:#FFFFFF;stroke-width:1.5;stroke-linecap:round;stroke-miterlimit:10;}
	.st29{fill:none;stroke:#B0CFF8;stroke-width:1.5;stroke-linecap:round;stroke-miterlimit:10;}
	.st30{fill:#EB9B7F;}
	.st31{fill:none;stroke:#B0CFF8;stroke-width:1.5;stroke-linecap:round;stroke-linejoin:round;stroke-miterlimit:10;}
	.st32{fill:#CB582C;}
	.st33{fill:#690C04;}
	.st34{fill:#829467;}
	.st35{fill:#22391F;}
	.st36{fill:#FBB07B;}
	.st37{fill:none;stroke:#693D30;stroke-width:1.5;stroke-linecap:round;stroke-linejoin:round;stroke-miterlimit:10;}
	.st38{fill:none;stroke:#3B1308;stroke-width:1.5;stroke-linecap:round;stroke-linejoin:round;stroke-miterlimit:10;}
	.st39{fill:#693D30;}
	.st40{fill:#E68B7A;}
	.st41{fill:#FD4926;stroke:#131B24;stroke-width:1.5;stroke-linecap:round;stroke-linejoin:round;stroke-miterlimit:10;}
	.st42{fill:#231F20;}
	.st43{fill:#3E4560;}
	.st44{fill:#3E4560;stroke:#131B24;stroke-width:1.5;stroke-linecap:round;stroke-linejoin:round;stroke-miterlimit:10;}
	.st45{fill:#1A1A1A;}
	.st46{fill:none;stroke:#22391F;stroke-width:3;stroke-linecap:round;stroke-linejoin:round;stroke-miterlimit:10;}
	.st47{fill:none;stroke:#126C0F;stroke-width:1.5;stroke-linecap:round;stroke-linejoin:round;stroke-miterlimit:10;}
	.st48{fill:#6E4D41;}
	.st49{fill:#C79E8F;}
	.st50{fill:none;stroke:#6E4D41;stroke-width:1.5;stroke-linecap:round;stroke-linejoin:round;stroke-miterlimit:10;}
	.st51{fill:none;stroke:#231F20;stroke-linecap:round;stroke-linejoin:round;stroke-miterlimit:10;}
	.st52{fill:#4C4CFF;}
	.st53{fill:#EB9B7F;stroke:#131B24;stroke-width:1.5;stroke-linecap:round;stroke-linejoin:round;stroke-miterlimit:10;}
	.st54{fill:none;stroke:#126C0F;stroke-width:5;stroke-miterlimit:10;}
	.st55{fill:none;stroke:#FBC143;stroke-width:1.5;stroke-linecap:round;stroke-linejoin:round;stroke-miterlimit:10;}
	.st56{fill:#C8D8E3;}
	.st57{opacity:0.6;fill:none;stroke:#EB9B7F;stroke-width:1.5;stroke-linecap:round;stroke-linejoin:round;stroke-miterlimit:10;}
	.st58{fill:#79848A;}
	.st59{fill:#734830;}
	.st60{fill:#E0866E;}
	.st61{fill:none;stroke:#734830;stroke-width:1.5;stroke-linecap:round;stroke-linejoin:round;stroke-miterlimit:10;}
	.st62{fill:none;stroke:#131B24;stroke-width:4;stroke-linecap:round;stroke-linejoin:round;stroke-miterlimit:10;}
	.st63{fill:#47322A;}
	.st64{fill:#ED1C24;}
	.st65{clip-path:url(#SVGID_00000062193504072420505210000000654434589265151886_);}
	.st66{fill:#FBC143;stroke:#131B24;stroke-width:1.5;stroke-linecap:round;stroke-linejoin:round;stroke-miterlimit:10;}
	.st67{fill:none;stroke:#A66946;stroke-width:1.5;stroke-linecap:round;stroke-linejoin:round;stroke-miterlimit:10;}
	.st68{fill:none;stroke:#22391F;stroke-width:10;stroke-linecap:round;stroke-linejoin:round;stroke-miterlimit:10;}
	.st69{fill:none;stroke:#FD4926;stroke-width:1.5;stroke-linecap:round;stroke-linejoin:round;stroke-miterlimit:10;}
	.st70{fill:#B0CFF8;stroke:#131B24;stroke-width:1.5;stroke-linecap:round;stroke-linejoin:round;stroke-miterlimit:10;}
	.st71{fill:none;stroke:#CF7332;stroke-width:1.5;stroke-linecap:round;stroke-linejoin:round;stroke-miterlimit:10;}
	.st72{fill:#666666;}
	.st73{fill:#D49A6F;}
	.st74{fill:#543B32;}
	.st75{fill:#A66946;stroke:#131B24;stroke-width:1.5;stroke-linecap:round;stroke-linejoin:round;stroke-miterlimit:10;}
	.st76{fill:#E73C1F;}
	.st77{fill:#201D1E;}
	.st78{fill:#CC6C4E;}
</style><g><g><path class="st0" d="M317.3,919c5.1-11.4,11-22.5,17.8-33"/><path class="st0" d="M342.1,899.3c9.4-14,17.6-29,24.3-44.5"/><path class="st0" d="M765.9,940.4c-9.7-21.4-20.2-42.5-31.2-63.3"/><path class="st0" d="M175.1,932.7c12.6-19.2,25.1-38.3,37.7-57.5"/><path class="st0" d="M855.4,890.7c13.9,22.8,27.4,45.9,40.3,69.3"/><path class="st0" d="M864.5,877.3c5.8,12.8,12.9,25.1,20.9,36.6"/></g><g><path class="st1" d="M356,288.2c-4-61.6-16-108.6-26.7-141.1c-9.3-28.2-20.7-54.5-9.5-65.2c10.4-10,35.3-1.6,49.5,7.4    c36.8,23.4,37.5,74.6,37.5,82c4.3-11,10.7-29.1,16.3-52.1c8.9-36.1,8.6-55,22.3-62.2c10.5-5.5,24.6-1.6,32.8,3.9    c21.7,14.6,26,56.1,8.5,102.9c41.6-50.8,81.9-80.4,100.9-70.1c16.2,8.8,14.9,45.1,10.4,65.2c-8.1,35.8-34.4,55.5-42,60.8    c13.8-8.1,118.5-68.6,159.8-38.5c2.8,2,7.1,5.3,8.6,10.9c8,31-87.2,78.7-110.5,90c18.9-0.4,134.1-2.6,154.7,25.3    c2.1,2.9,7.7,10.4,5.9,18.4c-2.4,10.6-16.6,15.7-27,19.1c-17.8,5.8-46.1,13.6-85.9,19.1c9.8,0.6,71.9,5.5,95.4,49.3    c3.5,6.6,11.2,20.9,5.6,28.6c-9.3,12.8-43.6-7.2-103.8-18.5c-61.5-11.5-71.3,0.8-130.7-14.1c-18.3-4.6-43.4-11.2-71.6-26.2    C407.7,357.1,375.9,319.3,356,288.2z"/><g><g><g><path class="st2" d="M472.8,109.7c0,12.7-2.8,25-6.8,37.1c-1.9,5.8-4.2,11.5-6.6,17.1c-2.2,5.4-5.8,11.2-6.2,17       c-0.2,2.8,3.6,4.1,5.4,2.3c4.2-4.2,6.5-11.5,8.8-16.9c2.6-6.2,4.9-12.6,6.8-19.1c3.6-12.4,4.7-25.3,2.4-38       C476.3,106.9,472.8,107.5,472.8,109.7L472.8,109.7z"/></g><g><path class="st2" d="M452,75.4c0.5,10.6,0.1,21.2-1,31.7c-0.6,5.2-1.2,10.4-2.1,15.5c-0.8,4.8-2.3,10-1.5,14.8       c0.5,3,4.3,2.7,5.7,0.8c3-4,3.7-10.2,4.4-15.1c0.8-5.3,1.3-10.6,1.5-16c0.3-10.9-0.8-21.6-2.7-32.3       C455.8,72.4,451.9,73,452,75.4L452,75.4z"/></g><g><path class="st2" d="M363,110.5c4.9,6.2,8.9,13.6,11.6,21c2.5,7,3.3,14.4,6,21.3c0.8,2,3.9,2.5,4.5,0       c3.9-16.2-8.2-34.4-19.5-44.9C363.9,106.1,361.6,108.6,363,110.5L363,110.5z"/></g><g><path class="st2" d="M338.7,101.4c4.9,9.2,9.1,18.8,12.2,28.7c2.8,9.2,4,19.2,8.3,27.8c0.8,1.5,3.3,1.2,3.7-0.5       c2.1-10-1.4-20.8-5.1-30.1c-4-10-9.1-19.3-15.6-27.9C340.6,97.3,337.4,99,338.7,101.4L338.7,101.4z"/></g><g><path class="st2" d="M482.3,204.8c5.3-6.3,11.8-12.1,18.5-16.8c3.2-2.3,6.6-4.3,10.2-6c1.9-0.9,3.8-1.8,5.8-2.6       c2.3-1,3.3-2.1,5.3-3.2c2.3-1.3,1.4-5.4-1.4-5.2c-2.3,0.2-4-0.1-6.3,0.7c-2.1,0.7-4.1,1.6-6,2.6c-4.3,2.1-8.3,4.6-12.1,7.5       c-7.5,5.6-12.9,12.2-17.6,20.2C477.4,204.2,480.6,206.8,482.3,204.8L482.3,204.8z"/></g><g><path class="st2" d="M571.4,128.4c-2.6,15.2-5.1,29.5-12.1,43.4c-6.9,13.7-16.2,25.7-23.6,39c-1,1.8,1.2,4.4,3,3       c13-10.1,22.2-24.2,28.6-39.3c6-14.1,10.9-30.9,7.2-46.2C574.2,126.9,571.7,126.7,571.4,128.4L571.4,128.4z"/></g><g><path class="st2" d="M557.7,248.6c9.3-6.9,18.9-13.6,28.9-19.4c4.8-2.8,9.7-5.5,14.7-7.8c5-2.3,11.7-3.8,15.7-7.6       c2.3-2.2,0.4-5.7-2.4-5.8c-5.3-0.4-11.3,3.2-16.1,5.4c-5.5,2.6-11,5.5-16.2,8.7c-10.2,6.5-19.3,14.2-27,23.6       C554.1,247.2,555.8,250,557.7,248.6L557.7,248.6z"/></g><g><path class="st2" d="M600.3,246.8c8.2-5.5,17.1-10.4,26.1-14.5c8.9-4,18.9-6,27.4-11.1c1.3-0.7,1.2-3.2-0.4-3.4       c-10.2-1.4-20.3,2.7-29.4,6.8c-10,4.5-18.7,10.7-26.6,18.3C595.2,244.8,597.9,248.4,600.3,246.8L600.3,246.8z"/></g><g><path class="st2" d="M706.4,196.9c-8.8,4.4-16.5,11.2-24.3,17.1c-3.8,2.9-7.8,5.5-11.6,8.5c-3.8,3-8.9,5.3-11.9,9.1       c-2,2.5-0.2,5.9,3.1,5.3c4.7-0.9,8.9-4.2,13-6.6c4.5-2.6,8.7-5.6,12.9-8.7c8.2-6,15.3-12.9,22.4-20.1       C712.4,199,709.4,195.4,706.4,196.9L706.4,196.9z"/></g><g><path class="st2" d="M614.2,305.4c9.2-1.8,18.8-2.6,28.2-2.8c4.3-0.1,8.6-0.2,12.9-0.2c4.7,0,9.1-1,13.7-1.7       c2.8-0.5,2.7-5,0-5.6c-4.6-1-9-2.1-13.7-2.2c-4.9-0.1-9.9,0-14.8,0.4c-9.8,0.7-18.9,2.4-28.1,5.8       C608.5,300.5,610,306.2,614.2,305.4L614.2,305.4z"/></g><g><path class="st2" d="M644.4,326.3c9.6-0.7,19.4-1.4,29-1c9.6,0.4,19.3,1.8,28.8,2.7c2.7,0.3,3.9-4.1,1.4-5.2       c-4.7-2.1-8.9-3.9-14.1-4.7c-5-0.8-10.1-1.3-15.2-1.4c-10.6-0.2-20.6,1.1-30.6,4.6C641.2,322.2,641.3,326.5,644.4,326.3       L644.4,326.3z"/></g><g><path class="st2" d="M720,313c6.1,0.5,12.4,1.8,18.4,3.2c5.5,1.2,10.5,3.2,16.1,3.7c3.2,0.3,3.6-4,1.5-5.5       c-9.9-7-24.5-6.6-36-5.1C717.6,309.6,717.5,312.8,720,313L720,313z"/></g><g><path class="st2" d="M640.9,380c9.8-0.9,19.8-0.3,29.3,2.3c9.3,2.5,17.8,7.2,27.3,9.1c2.1,0.4,3.6-2,2.1-3.6       c-13.9-15.1-41.2-21.3-59.8-12C637.8,376.8,638.7,380.2,640.9,380L640.9,380z"/></g><g><path class="st2" d="M655.8,411c7.8-2.3,16.7,1.7,24,4.2c3.9,1.3,7.8,2.7,11.7,4.2c3.7,1.3,7.9,3.1,11.8,2.6       c2.1-0.3,3.1-2.4,1.7-4.1c-2.8-3.2-7.5-4.7-11.4-6.2c-5.1-1.9-10.2-3.7-15.4-5.1c-8.5-2.3-16.1-3.7-24.4-0.2       C651.2,407.5,653.1,411.8,655.8,411L655.8,411z"/></g><g><path class="st2" d="M720.3,409.5c5.8,0.9,11.6,2.8,16.9,5.5c4.6,2.3,9.5,6.7,14.6,7.6c2.1,0.4,3.9-1.2,3.4-3.4       c-1.3-6-8.6-10.4-13.8-12.7c-6.5-2.8-13.1-3.8-20.2-3.4C717.7,403.4,716.5,409,720.3,409.5L720.3,409.5z"/></g></g></g></g><polygon class="st3" points="360.9,374 717.5,374 795.6,632.7 284.4,632.7  "/><g><g><g><circle class="st4" cx="496.6" cy="479.8" r="16.5"/><path class="st5" d="M500.6,465.3c-0.5,0.4-2,1.3-4.2,1.3c-2,0-3.4-0.9-3.9-1.3c0-1.8,0-3.5,0-5.3h8.1V465.3z"/><path class="st0" d="M496.6,459.2v-4.8c0-1.2,1-2.2,2.2-2.2h0c1.2,0,2.2,1,2.2,2.2v0.7"/></g><g><path class="st6" d="M495.8,485.5c-0.3-0.1-1.2-0.4-1.8,0c0,0-0.1,0.1-0.2,0.2c-0.6,1,4.1,7.7,2.9,9.5c-0.9,1.3-5.6,0.4-8.6-2      c-2.4-1.9-3.9-4.7-3.9-4.7c-1.2-2.3-1.7-4.6-3-4.7c-0.5-0.1-1,0.2-1,0.3c-1.8,1.4,0.3,7.2,0.2,7.2c-0.1,0-1.6-2.9-2.3-7.5      c-0.2-1.2-0.3-2.9-1.2-3.2c-0.5-0.2-1.1,0.3-1.3,0.4c-2.2,1.7-1.9,9.5,1.7,15.5c0.9,1.5,3,5,7.2,7.1c6,3,15.9,3.2,19.5-2.8      C507.5,495.4,499.6,486.9,495.8,485.5z"/><path class="st0" d="M479.6,488.8c0.7,2.7,1.9,5.4,3.5,7.7"/></g><g><path class="st7" d="M505.3,497.2c2.2,3.8,4.3,7.5,6.5,11.3c-1.8,1.9-4.5,4.5-8.4,6.5c-2.6,1.4-5,2.1-6.9,2.5      c-2.1-4-4.2-8-6.4-11.9c1.8-0.2,4.1-0.7,6.6-1.9C500.9,501.8,503.7,499,505.3,497.2z"/><path class="st7" d="M538.8,556.6c-1.5,6.2-3,12.5-4.5,18.8c-0.3,1.2-0.6,2.5-0.9,3.7c-0.6,2.5-1.2,5-1.8,7.5      c-3.5,0.6-7.1,0.6-10.5,0c-13.8-2.5-23.7-14.9-28.4-28.9c-4.2-12.5-4.3-26.4,0.6-35.8c1-1.9,2.1-3.5,3.4-4.9      c5.4-2.2,9.7-6.9,14.9-9.2c2.7-0.2,7.5-0.2,11.4,2.6c6.8,4.8,6.5,16,6.3,26.2c-0.2,8.9-0.3,17,4.6,19.5      C535.6,556.9,537.5,556.8,538.8,556.6z"/><path class="st0" d="M503.2,513.2c3.2-2.8,7-4.9,11.1-5.9"/></g></g><g><path class="st6" d="M577.9,539.1c-5.4,0.5-10.6-3.6-11.2-9.4v-28.9l16.6-8l3.7,34.3C588,533,583.7,538.5,577.9,539.1z"/><path class="st8" d="M571.3,513c-1.5,1.5-3.1,2.9-4.5,4c0-3.9,0-7.9,0-11.8c4.7-4.8,9.4-6.9,11.5-5.5c0.4,0.3,1,0.9,1.3,2.2     C577.8,505.2,575.2,509.2,571.3,513z"/><path class="st7" d="M545.6,530.6c-8.4,7.8-9.8,18.6-10.6,24.8c-2.4,18.4-6.4,40.9-12.7,70.7c5.6,1.8,11.7,3.2,18.2,4     c41.2,5.3,75-15.5,89.8-26.1c-0.3-8.2-1-19.7-2.3-33.4c-3.2-32.7-6.6-38.8-10.7-42.6c-9.7-9-23.6-8.8-30.5-8.1     c-0.1,0.8-1.1,5.8-5.7,8.4c-4.3,2.5-9.9,1.8-14.1-1.7c0-1.4,0-2.8,0-4.2C561.4,522.8,552.5,524.1,545.6,530.6z"/><path class="st0" d="M536.2,548.1c-1.2,7.8-2.4,15.7-3.6,23.5"/></g><g><path class="st6" d="M547.5,455.6c-2.5,5.7-5.9,14.9-7.2,26.7c-1.3,12.4-2.6,24.4,4.3,29.6c8.5,6.5,24.1-1.3,31.2-6.5     c3.9-2.8,16.9-12.1,16.7-27.3c-0.1-14.3-11.7-29.1-26.1-29.8C556.9,447.8,549.8,453.6,547.5,455.6z"/><g><path class="st0" d="M550.4,504.7c4.2,1.3,9.1-0.2,11.9-3.6"/><path class="st0" d="M551,483.9c-0.2,1.6-0.5,3.3-0.7,4.9c-0.2,0-0.6,0.1-0.9,0.2c-0.9,0.4-2,1.4-1.7,2.7c0.2,1.1,1.2,1.9,2.4,2      "/><path d="M563.8,478.3c1.9,1.2,2.7,2.3,3.6,2c0.1,0,0.4-0.2,0.5-0.5c0.6-1.2-2.2-3.5-2.5-3.7c-1.8-1.5-5.3-3.5-7.1-2.2      c-0.4,0.3-0.9,0.9-0.7,1.4c0.2,0.7,1.2,0.7,3.1,1.5C561.1,476.9,562.4,477.5,563.8,478.3z"/><path d="M543.6,476.9c-2,0-3.4,0.6-4.1-0.2c0-0.1-0.3-0.3-0.2-0.7c0.1-1.1,2.7-1.7,4.1-1.8c0.6-0.1,4.7-0.5,5.5,1.3      c0.3,0.6,0.1,1.6-0.4,2C547.5,478.2,546.3,476.9,543.6,476.9z"/><g><path class="st0" d="M556.3,486.4c1.3-1,3-1.5,4.7-1.2c1.6,0.3,3.1,1.5,3.6,3.1"/><path class="st0" d="M563.5,486.3c0.7-0.2,1.3-0.4,2-0.6"/></g><path class="st0" d="M540.2,483.1c0.6-1.1,1.7-1.8,2.9-1.7c1.5,0,2.8,1.2,3.1,2.7"/></g><path class="st9" d="M558,434.7c-3.9,0.6-9.7,3.4-10.2,8.2c-0.3,2,0.5,3.8,1.2,4.9c-6.5-2.1-15.3,7-8.9,12.6c2.4,2.3,6,2.2,9,1.3     c4.1,3.2,10.3,3.9,14.5,0.3c4.7,6.8,13,10.8,21.2,10.4c0.5,5.3,1,10.6,1.5,15.9c1-1.2,2-2.4,3.1-3.6c5.8-3.2,12.4-13.8,4.6-18.1     c10.4-13-8.5-26.6-20.1-23.2C570,437.3,563.8,433.8,558,434.7z"/><g><path class="st6" d="M584,486.6c0.4-0.6,2.1-3.2,5.1-3.7c2.5-0.4,6,0.6,7,3.4c1,2.5-0.5,5.2-0.6,5.5c-2,3.7-7.5,5-13.6,3.4"/><path class="st0" d="M585.8,487.8c1.7-1.8,4.4-2.7,6.9-2.4"/></g></g></g><g><path class="st4" d="M797.5,643.8l-274.8,2.5c1.4-7.1,24.2-117.9,89.5-138.6c9.8-3.1,25.1-5.7,39.5-6.6c11.6-0.8,25.5-1.7,39.8,0    c3,0.4,6,0.8,9.1,1.4c10.1,2,20.3,5.5,29.9,11.6c16.6,10.5,24.1,23.9,37,46.7C777.4,578.5,790.3,606.3,797.5,643.8z"/><path class="st10" d="M700.5,506.6c-1.3,8.4-4.6,16.5-10.1,23c-5.5,6.4-13.3,11.1-21.7,12c-8.4,0.9-17.3-2.1-22.9-8.5l-3.7-3.3    c9.4,2.2,19.4-0.7,27.4-6c8-5.3,14.4-12.8,20.2-20.4c0.6-0.8,1.2-1.5,1.8-2.2c3,0.4,6,0.8,9.1,1.4    C700.8,503.8,700.7,505.2,700.5,506.6z"/><g><path class="st6" d="M630.5,475c-0.1,30.1,10.2,52.8,26.8,56.9c1.9,0.5,5.6,1.1,9.9,0.3c16.8-3.4,28-27.3,29-59.5     c-1.1-17.6-15.7-31.4-32.6-31.5C645.6,441.1,630.3,456.3,630.5,475z"/><path class="st6" d="M695,487.2c1-6.7,13.5-10.7,14.8-2.3c2.1,8.9-9.6,21.3-17.8,14.6"/><path class="st6" d="M632.3,487.2c-1-6.7-13.5-10.7-14.8-2.3c-2.1,8.9,9.6,21.3,17.8,14.6"/><path class="st9" d="M638.9,474.9c1.8,1.5,4.4-0.4,9.4-1.2c4.9-0.8,7.4,0.3,8.7-1.5c0.5-0.7,0.9-2,0.4-2.8     c-2.1-3.5-19.3,1.7-19.1,4.6C638.3,474.4,638.6,474.7,638.9,474.9z"/><g><path class="st9" d="M671.1,470.9c-0.2,0.5-0.1,0.9-0.1,0.9c0.1,0.8,0.8,1.2,1,1.4c1.5,1.1,5.6,0.3,9.4,0.8      c3.9,0.5,6.3,2.3,7.3,1.2c0.4-0.4,0.3-1,0.3-1.1c-0.2-2.4-5.7-4-8.9-4.5C675.5,468.9,671.5,469.7,671.1,470.9z"/></g><path d="M678.8,487.8L678.8,487.8c-1.2,0-2.2-1-2.2-2.2v-2.3c0-1.2,1-2.2,2.2-2.2l0,0c1.2,0,2.2,1,2.2,2.2v2.3     C681,486.8,680,487.8,678.8,487.8z"/><path d="M649,487.8L649,487.8c-1.2,0-2.2-1-2.2-2.2v-2.3c0-1.2,1-2.2,2.2-2.2l0,0c1.2,0,2.2,1,2.2,2.2v2.3     C651.2,486.8,650.2,487.8,649,487.8z"/><path class="st0" d="M644.9,481.6c2.6-0.7,5.3-0.8,7.9-0.1"/><path class="st0" d="M674.3,481.6c2.6-0.7,5.3-0.8,7.9-0.1"/><path class="st9" d="M646,505.2c7,2.3,14.2-4.9,21.3-3.5c4.3,0.9,8,4.9,12.4,4.3c1.9-0.2,3.9-1.4,6.8-4.8     c6.3-7.3,8.6-16.2,9.5-22.4c0.1,29.4-7.6,51.8-17.7,57.9c-5.8,3.5-11.7,4.2-11.7,4.2s-7.9,0.9-16.5-3.1     c-11.5-5.4-20.5-27.7-19.5-56.6c0.7,3.2,2,7.9,5,12.9C638.8,499.4,641.4,503.8,646,505.2z"/><path class="st6" d="M665.3,506.3c4.1,0.1,7.2,0.2,9.2,2.6c2.8,3.2,1.6,8,1.4,8.7c-1.8,3.1-5.2,4.4-7.6,3.3     c-2-0.9-2.8-3.1-2.9-3.6c-0.6-0.2-1.5-0.5-2.4-0.1c-1.3,0.5-1.4,1.9-2.4,2.9c-1.6,1.4-4.8,1.2-6.7-0.2c-3.1-2.1-3.1-7.4-1.1-10.4     C655.2,506.1,660.2,506.2,665.3,506.3z"/><path class="st0" d="M657.5,512.7c2.6,0.4,5.1,0.8,7.7,0.6s5.2-1.1,7-2.9"/><path class="st0" d="M697.1,487.2c2.2-2.7,5.6-4.4,9.1-4.5"/><path class="st0" d="M620.6,482.2c3,0.1,5.8,1.8,7.3,4.4"/><path class="st9" d="M685.1,452.2c1.8,4.5,3.8,9,5.8,13.6c1.7,3.7,3.3,7.4,5,10.9c0.3-3.4,0.6-8.5,0.3-14.7     c-0.6-10.1-0.9-15.9-4.5-20.7c-4.5-6.1-11.7-7.4-20.6-9c0,0-16.7-3-31.1,3.8c-4.9,2.3-6.8,5.1-7.5,6.1c-1.2,1.9-1.6,3.6-1.9,4.5     c-2.1,8.4-0.3,29.6-0.2,31.3c2.5-4.5,5-9.5,7.4-15.2c1.5-3.7,2.8-7.2,3.9-10.5c5.9,1.3,13.7,2.5,22.8,2.3     C672.7,454.6,679.7,453.4,685.1,452.2z"/><path class="st0" d="M663.9,482.9c0,3.5,0.1,7.1,0.1,10.6c-1.2,0.3-2.2,1.2-2.5,2.2c-0.3,1.5,0.8,3.3,2.8,3.7"/><path class="st0" d="M667.2,498.6c0.6-0.5,1.3-1.1,1.9-1.6"/></g></g><path class="st8" d="M751.8,494.9c-39.1,50.5-94.1,84.2-152.3,108.4c4.6,2.8,8.8,6.4,12.2,10.6c16.6-4.5,37.3-12.2,59-25.4   c46.2-28.2,71.2-66.3,83-87.7"/><g><path class="st11" d="M607.8,557.7c0,0-20,8.9-48.2,42.2c-28.1,33.3-31.2,65-12.9,71.7s74-79.2,74-79.2L607.8,557.7z"/><path class="st0" d="M607.8,557.7c0,0-20,8.9-48.2,42.2c-3.1,3.7-6,7.4-8.5,11.1"/><path class="st10" d="M587.1,585.4c-0.7,3.4-1,7.1,0.7,10.1c2.6,4.5,8.5,5.7,13.6,5.3c16.1-1.1,33.9-15.4,33.3-32.7    c-0.6-19.4-22.7-15.1-33.2-6.4C594.3,567.7,589,576.2,587.1,585.4z"/><path class="st11" d="M725.3,557.5c0,0,17.8,12.8,38.7,51c20.9,38.2,17.5,70-1.8,72.9c-19.3,2.9-56.5-92.5-56.5-92.5L725.3,557.5z    "/><path class="st0" d="M725.3,557.5c0,0,17.8,12.8,38.7,51c1.6,2.9,3,5.7,4.3,8.5"/><path class="st10" d="M740.1,588.8c0,3.5-0.5,7.2-2.8,9.7c-3.4,3.9-9.5,3.8-14.4,2.5c-15.5-4.3-30.1-21.9-26.1-38.7    c4.5-18.9,25.3-10.2,33.9,0.4C736.6,570,740,579.4,740.1,588.8z"/><path class="st6" d="M682.4,561.2c0.6-2.6,3.5-4.6,6-3.7c1.3,0.5,2.2,1.6,3,2.7C700.5,574.4,680,571.5,682.4,561.2z"/><path class="st6" d="M651,561.2c-0.6-2.6-3.5-4.6-6-3.7c-1.3,0.5-2.2,1.6-3,2.7C632.9,574.4,653.4,571.5,651,561.2z"/><path class="st8" d="M745.7,625.3c0,44-35.6,79.6-79.6,79.6s-79.6-35.6-79.6-79.6s35.6-79.6,79.6-79.6S745.7,581.4,745.7,625.3z     M666.1,556.3c-38.1,0-69,30.9-69,69s30.9,69,69,69s69-30.9,69-69S704.2,556.3,666.1,556.3z"/><g><path class="st6" d="M717.5,551c-5.1-4.7-11.9-4.4-16.8,0.4c-1.9,1.8-4.1,3.6-6.2,5.5c-5.4,5.1-6.1,13.6-1.3,19.4     c4.4,5.4,10.7,9.6,16.7,12.4c8.7,6.3,31.7-8.6,27.8-18.5C734.2,562.7,723.9,555.7,717.5,551z"/><path class="st0" d="M693.3,575.9c4.6-6.5,10.3-12.2,16.7-16.8"/><path class="st0" d="M699.3,582c5.4-6.8,11.9-12.8,19.1-17.8"/><path class="st0" d="M707.7,587.7c6-6.6,12.2-13.3,19.7-18.2"/></g><g><path class="st6" d="M617.3,553.4c5.1-4.7,11.9-4.4,16.8,0.4c1.9,1.8,4.1,3.6,6.2,5.5c5.4,5.1,6.1,13.6,1.3,19.4     c-4.4,5.4-10.7,9.6-16.7,12.4c-8.7,6.3-31.7-8.6-27.8-18.5C600.6,565.1,610.9,558.1,617.3,553.4z"/><path class="st0" d="M624.6,558.3c6.5,5,12.6,10.6,18.2,16.6"/><path class="st0" d="M617.4,567.3c2.7,1.9,5.6,4.3,8.6,7.1c3.7,3.5,6.8,6.9,9.2,10.1"/><path class="st0" d="M608.5,573.7c6,5.5,12,11,17.9,16.5"/></g></g><path class="st8" d="M459.9,550.3H347.4c-19.6,0-35.5,15.9-35.5,35.5v57.1h183.5v-57.1C495.4,566.2,479.5,550.3,459.9,550.3z"/><g><path class="st12" d="M380.7,564.4c-6.1,0-14.6-3-16.9-10.9c-1.8-6.1,0.6-13,6.1-17.4c-11.9-3-19.5-14.4-17.9-26    c1.5-10.8,10.7-19.3,22-20.1c-5.4-8.7-3.1-18.8,3-22.5c5.9-3.7,13.5-0.1,14,0.2c6.4-15.3,21.8-23.8,35.7-20.9    c15.5,3.2,21.8,18.8,22.3,20c4.7-1.7,9.9-0.5,13,3c3.7,4.3,3.6,11.2-0.7,15.9c9.9,5.8,5.1,23-4.2,27.3c25,37-33.2,69.9-60.9,43.4    C395.3,557.2,389.9,564.4,380.7,564.4z"/><path class="st13" d="M311.2,623.6c1.4-9.5,7.6-43.3,35.5-60.8c22.3-14.1,46.8-10.3,80.4-5.2c20,3.1,31.7,5,43.5,14.2    c22.4,17.4,25.8,46,26.5,55"/><path class="st0" d="M351.4,600.4c-2.5,9.4-3.6,19.2-3.4,28.9"/><path class="st0" d="M459.3,605.4c2.6,9.7,3,19.9,1.2,29.8"/><path class="st6" d="M429,567.3c-3.8,6.3-11.1,9.6-18.3,8.4c-7-1.2-12.8-6.5-14.4-13.5c0.6-14.6,1.1-29.1,1.7-43.7    c0.9,0.6,1.9,1.2,2.8,1.8c0.5,0.3,0.9,0.6,1.4,0.9c8.8,5.5,17.5,10.9,26.3,16.3c0.1,5.3,0.2,10.7,0.3,16c0,0.4,0,0.7,0,1.1    C428.9,558.8,429,563.1,429,567.3z"/><path class="st8" d="M428.8,553.5c-6.3-1.2-12.2-4.4-16.7-9c-5.8-5.8-9.3-13.7-10.4-21.9l0.6-1.4c8.8,5.5,17.5,10.9,26.3,16.3    C428.6,542.8,428.7,548.2,428.8,553.5z"/><path class="st6" d="M400.7,527.1c2.6,5.1,9.1,17.5,21.6,20.3c2.9,0.7,5.6,0.6,6.9,0.5c12.4-1.5,23.1-27.5,28.3-62    c-10.8-11.2-26.4-15.7-40.1-11.3c-13.4,4.3-19.9,15.3-21.5,18.2C394.9,498.6,393.2,512.8,400.7,527.1z"/><path class="st0" d="M441,505.9c-0.4,3.1-0.8,6.2-1.1,9.3c0.9,0.8,1.7,1.5,2.6,2.3c-0.1,0.5-0.3,1.3-0.9,2.1    c-1.1,1.5-2.8,1.9-3.2,1.9"/><path class="st8" d="M425.2,512.5L425.2,512.5c-0.9-0.2-1.5-1.1-1.3-2l0.4-2.1c0.2-0.9,1.1-1.5,2-1.3l0,0c0.9,0.2,1.5,1.1,1.3,2    l-0.4,2.1C427,512.1,426.1,512.6,425.2,512.5z"/><path class="st8" d="M448.7,512.5L448.7,512.5c-0.9-0.2-1.5-1.1-1.3-2l0.4-2.1c0.2-0.9,1.1-1.5,2-1.3l0,0c0.9,0.2,1.5,1.1,1.3,2    l-0.4,2.1C450.5,512.1,449.6,512.6,448.7,512.5z"/><path class="st0" d="M420.7,509c3.1-1.6,6.7-2.2,10.2-1.9"/><path class="st0" d="M446.3,508.7c0.7-0.3,1.4-0.7,2.3-1c1.7-0.5,3.2-0.7,4.4-0.7"/><path class="st6" d="M396.5,504.8c-1.7-3.7-8.1-3.4-10.5-0.4c-6,7.1,3.7,16,11.5,13.4"/><path class="st0" d="M389.5,504.4c2.3,0,4.7,1.2,6,3.1"/><path class="st8" d="M416.5,501.6c2.1-1.4,4.5-2.4,7-3.1c2.5-0.7,5.1-1,7.7-0.9l0,0c1.2,0.1,2.2,1.1,2.2,2.4    c-0.1,1.2-1.1,2.2-2.4,2.2c-0.1,0-0.2,0-0.3,0c-4.3-0.7-8.8-0.1-12.9,1.8l0,0c-0.7,0.3-1.5,0-1.8-0.6    C415.7,502.7,415.9,501.9,416.5,501.6z"/><path class="st8" d="M446.3,498.7c3.3-0.2,6.5,0.7,9.2,2.3c0.6,0.3,0.7,1.1,0.4,1.6c-0.3,0.5-1,0.7-1.5,0.5l0,0    c-2.4-1.1-5.1-1.4-7.7-1c-1,0.2-1.9-0.5-2-1.4c-0.2-1,0.5-1.9,1.4-2C446.2,498.7,446.2,498.7,446.3,498.7L446.3,498.7z"/><path class="st12" d="M411.9,487.3c4.2,0.4,13.7-6.3,14.6-11.5c5.7,8.5,23.6,16.6,33.3,15.4c-1.7-14.6-11.2-25.4-22-26.8    c-6.7-0.9-12.4,2.2-15.1,3.9c-12.3-5.4-25.9-0.5-31.1,9.5c-4,7.7-2.6,17.7,3.4,25.1c2.5-0.9,6.7-2.8,10.7-6.7    C409,493,410.9,489.6,411.9,487.3z"/><path class="st0" d="M437.2,519.5c-0.7,0.5-1.3,0.9-2,1.4"/><path class="st0" d="M422.1,466.2c0.3,1.4,0.9,2.7,1.6,4c1.1,2.1,2.1,4.3,3.6,6.2c3.2,4.4,8,7.4,12.7,10.2"/><path class="st0" d="M402.9,485.7c2.7,1.5,5.9,2.1,9,1.6c3.1-0.5,6-2,8.1-4.3"/><path class="st0" d="M371.1,481c0.5,6.7,4.9,12.9,11.1,15.5"/><path class="st0" d="M363.1,533.6c1.2,0.8,5.9,3.8,12.4,2.9c5.6-0.8,9.2-4,10.3-5.1"/><path class="st3" d="M439.9,530.3c-1.7,0.2-5.4,0.3-9.5-1.4c-3.8-1.6-6.1-4-7.2-5.3C420.7,535.4,433,539.1,439.9,530.3z"/></g><path class="st8" d="M316.2,525.5c39.1,50.5,94.1,84.2,152.3,108.4c-4.6,2.8-8.8,6.4-12.2,10.6c-16.6-4.5-37.3-12.2-59-25.4   c-46.2-28.2-71.2-66.3-83-87.7"/><g><g><g><g><path class="st8" d="M286.2,944.1h-23.3c-10.3,0-18.6-8.3-18.6-18.6v-93.2h60.5v93.2C304.8,935.8,296.4,944.1,286.2,944.1z"/></g><g><path class="st8" d="M817.1,944.1h-23.3c-10.3,0-18.6-8.3-18.6-18.6v-93.2h60.5v93.2C835.7,935.8,827.4,944.1,817.1,944.1z"/></g></g></g><path class="st14" d="M887.8,866.7H192.2c-3,0-5.5-2.1-6.1-5.1l-5.9-32.1c-0.7-3.8,2.2-7.3,6.1-7.3h707.4c3.9,0,6.8,3.5,6.1,7.3    l-5.9,32.1C893.4,864.6,890.8,866.7,887.8,866.7z"/><rect class="st15" height="106.6" width="698.4" x="190.8" y="715.7"/><circle class="st16" cx="834.8" cy="776.8" r="38.1"/><circle class="st16" cx="245.2" cy="776.8" r="38.1"/><polygon class="st16" points="795.5,715.7 284.5,715.7 287.9,727.2 792.1,727.2   "/><polygon class="st8" points="292.3,621.1 572.2,621.1 595,598.3 733.6,598.3 754.7,619.4 787.7,619.4 797.5,656.1 277.1,656.1       "/><polygon class="st15" points="808,632.7 272,632.7 190.8,716.8 889.2,716.8   "/><line class="st0" x1="237.1" x2="317.1" y1="715.7" y2="632.7"/><line class="st0" x1="762.9" x2="843" y1="632.7" y2="715.7"/><line class="st0" x1="301.9" x2="778.1" y1="648.5" y2="648.5"/><g><rect class="st17" height="53.7" width="437.9" x="321.1" y="745.7"/><line class="st0" x1="321.1" x2="758.9" y1="763.6" y2="763.6"/><line class="st0" x1="321.1" x2="758.9" y1="781.5" y2="781.5"/></g><polygon class="st18" points="284.5,822.2 190.8,822.2 190.8,716.8 284.5,716.8 301.9,769.5   "/><polygon class="st18" points="795.5,822.2 889.2,822.2 889.2,716.8 795.5,716.8 778.1,769.5   "/><circle class="st3" cx="834.8" cy="769.5" r="38.1"/><circle class="st3" cx="245.2" cy="769.5" r="38.1"/><g><polygon class="st14" points="828.1,589.6 900.9,581.5 900.9,624.6 795.6,632.7    "/><polygon class="st14" points="251.9,589.6 179.1,581.5 179.1,624.6 284.4,632.7    "/></g><polygon class="st15" points="808,632.7 791.1,632.7 716.6,381.2 363.4,381.2 288.9,632.7 272,632.7 353.2,358.8 726.8,358.8       "/><path class="st8" d="M581.2,415.3h-82.3c-4.1,0-7.1-4-5.9-7.9l4.5-15.2c0.8-2.6,3.2-4.4,5.9-4.4h73.4c2.7,0,5.2,1.8,5.9,4.4    l4.5,15.2C588.3,411.3,585.3,415.3,581.2,415.3z"/><line class="st18" x1="301.9" x2="626.3" y1="822.2" y2="822.2"/></g><g><path class="st1" d="M303.4,375c4.3-44.7,0.7-79.7-3.3-103.1c-8.4-49.5-25.4-88-5.5-110.9c29.3-29.3,54.2,11.9,72.1,66.5    c-3.9-55.6,41.8-97.2,76.4-57.3c7.3,16.2-12.4,59.3-24.1,85.9c16.8-24.5,86.8-68.5,111.9-21.7c6.4,26.9-64.5,64.3-61.6,69.4    c3.2,5.5,81-49.6,115.8-25.3c10.1,7.1,17.5,21.5,14.4,32.2c-2.9,15.8-56,30.8-71.6,34.3c54.7-12.6,106-6.7,94,36.1    c-11.9,24.7-63.8,15.9-127.7,21.6c-30.6,2.7-73.6,8.3-125.3,21.1C347,407.6,325.2,391.3,303.4,375z"/><path class="st1" d="M481.5,435.1c-4.7,13.4-55.4-3.8-117.1,5.6c-26.5,4-49.5,12.1-68.5,21.1c-14.8,7-27.1,14.5-36.8,21    c21.9-60.7,23.4-109.4,19.7-144.7c-3.6-34.8-13.2-64.3-5.9-67.7c2.9-1.3,7.6,1.8,13.5,7.8c11.5,11.8,27.3,34.8,41.8,57.4    c-3-20.1-20.9-79.7-6.7-93.3c15.4-4.9,25.5,17.8,30.8,44.2c6.4,31.7,4.8,56.9,2.1,66.2c3.7-8.5,8.8-20.5,14.6-35    c9-22.7,12.8-34.1,19.2-34.3c5.1-0.2,9.2,6.7,10.6,9c14.3,23.9-7.4,61.8-11.9,69.5c7.9-3.3,19.9-7.2,34.8-8    c19.4-1.1,48.2,2.8,50.3,13.5c0.8,3.8-2.1,7.4-4.5,10.2c-12.4,14.7-34.4,16.1-46.4,15.6c7.6,0.9,17.9,3.2,28.7,9.1    C463,409.1,484.8,425.8,481.5,435.1z"/><g><g><path class="st2" d="M284.7,297.5c-1,5,1.9,10.7,3.3,15.5c1.7,6,2.9,12.2,3.8,18.3c0.9,6.1,1.3,12.2,1.3,18.4      c-0.1,6-1.4,12.8-0.2,18.6c0.6,2.7,4.6,3.1,5.9,0.8c2.9-5.2,3-12.7,3-18.5c0.1-6.6-0.5-13.2-1.4-19.8c-1-6.5-2.6-12.8-4.8-19      c-1.8-5-3.9-12.5-8.8-15.2C286.1,296.2,284.9,296.5,284.7,297.5L284.7,297.5z"/></g><g><path class="st2" d="M314.9,353.3c-3,10.7-4.7,21.6-8.4,32.2c-3.6,10.4-8.9,20.1-12.4,30.5c-0.4,1.1,1.1,1.8,1.9,1.1      c8.6-7.5,13.5-18.3,17.3-28.9c3.8-10.7,6.6-23,5.3-34.4C318.4,351.8,315.5,351.1,314.9,353.3L314.9,353.3z"/></g><g><path class="st2" d="M306.2,430.6c4.2,0.3,7.8-3.3,11.1-5.5c4.4-2.9,8.9-5.6,13.6-8.1c4.5-2.4,9.2-4.7,13.9-6.6      c4.4-1.7,9.8-2.6,13.2-5.9c2-1.9,1.1-5.8-1.7-6.3c-5.1-1.1-10.2,1.5-14.9,3.4c-5.3,2.1-10.4,4.5-15.3,7.4      c-4.6,2.7-9,5.8-13.2,9.2c-3.4,2.8-8.2,6-8.4,10.8C304.5,429.9,305.4,430.5,306.2,430.6L306.2,430.6z"/></g><g><path class="st2" d="M368.3,419.9c7.9-0.5,15.8-0.9,23.8-1.5c7.3-0.6,15.9,0.8,22.9-1.5c2.8-0.9,2.7-4.6,0-5.6      c-7-2.6-16.6-0.8-23.8-0.1c-8.1,0.8-15.6,2.7-23.3,5.4C366.2,417.2,366.3,420,368.3,419.9L368.3,419.9z"/></g><g><path class="st2" d="M357.2,389.4c9.3-6.1,19.9-10.5,30.8-12.5c5.4-1,11-1.4,16.4-1.3c5.1,0.1,10.7,1.2,15.7,0.5      c2.4-0.3,2.2-3.5,0.6-4.6c-4.5-3.2-11.8-3.8-17.1-4c-6-0.2-12,0.4-17.8,1.6c-12.1,2.5-22.7,7.9-32,16.1      C351.5,387.1,354.6,391.1,357.2,389.4L357.2,389.4z"/></g><g><path class="st2" d="M348.1,378.2c9.2-13.1,22-21.8,33.6-32.4c1.4-1.3-0.1-3.3-1.7-3c-16.8,3.5-28.8,19-34.7,34.1      C344.6,378.8,347.2,379.5,348.1,378.2L348.1,378.2z"/></g><g><path class="st2" d="M336.8,304c-2.6,7.3-0.8,15.6-1.1,23.2c-0.3,8.7-2.9,17.3-3.2,25.9c-0.1,1.7,2.5,2.4,3.2,0.9      c3.3-6.8,3.8-15.6,4.1-23c0.2-4.3,0.1-8.7-0.2-13.1c-0.4-4.5-1.4-8.7-0.3-13.2C339.7,303.1,337.4,302.4,336.8,304L336.8,304z"/></g><g><path class="st2" d="M458.7,334.6c5.5-1.6,10.8-4.5,16.1-6.6c5.5-2.2,11.1-3.9,16.8-5.4c5.6-1.5,11.3-2.6,17-3.4      c5.6-0.7,12.3-0.6,17.5-2.8c2.5-1,2.5-4.1,0-5.2c-5.4-2.3-12.7-1.6-18.3-0.9c-6.2,0.8-12.4,1.9-18.5,3.5      c-11.2,3-24.9,7.8-33.3,16C454,331.9,456,335.4,458.7,334.6L458.7,334.6z"/></g><g><path class="st2" d="M510.6,336.2c8.7-3.5,17.9-5,27.3-5.9c9-0.8,18,0.4,26.9-0.7c1.4-0.2,2.6-2.3,0.9-3.1      c-17.3-8-39.5-0.9-56.1,5.8C507,333.2,508.1,337.2,510.6,336.2L510.6,336.2z"/></g><g><path class="st2" d="M491.4,367.1c9.1-2.7,18.5-2,27.5,0.7c8.2,2.4,16.5,8.1,25,8.9c2.5,0.2,3.6-3.2,2-4.8      c-3.4-3.4-8.4-5.3-12.8-7.1c-5.1-2.1-10.3-3.9-15.8-4.9c-9.6-1.8-18.9-1.2-27.9,2.6C486.9,363.7,488.8,368,491.4,367.1      L491.4,367.1z"/></g><g><path class="st2" d="M429.3,309c5.2-2.7,9.1-7.9,13.1-12.1c4.2-4.4,8.4-8.7,12.8-12.9c4.4-4.2,9-8.1,13.7-12      c4.3-3.6,10.3-7.3,13.3-12c1.5-2.3-1-4.9-3.4-4.4c-5.3,1.1-10.7,5.7-15,8.9c-5.3,4.1-10.3,8.4-15.1,13c-4.6,4.4-9,9-13.1,13.8      c-3.7,4.5-8.1,9.4-9.4,15.2C425.8,308.4,427.6,309.9,429.3,309L429.3,309z"/></g><g><path class="st2" d="M451.2,254.5c9.5-10.7,22.2-16.9,33.9-24.6c1.8-1.2,1.4-4.9-1.2-4.5c-4,0.5-7.1,1-10.8,2.7      c-3.7,1.7-7,3.8-10.2,6.2c-6.3,4.7-11.3,10.5-15.9,16.9C445.1,253.7,449.1,256.8,451.2,254.5L451.2,254.5z"/></g><g><path class="st2" d="M395.4,264.8c-0.2-4.5,1.6-9.7,2.6-14.1c1.3-5.2,2.6-10.4,4.2-15.5c1.6-5.1,3.6-10,5.7-14.9      c2.1-4.7,5.2-9.7,6.1-14.8c0.5-2.7-2.4-4.4-4.5-2.6c-4.5,3.9-7.3,10.5-9.6,15.8c-2.4,5.5-4.5,11.2-6.2,16.9      c-1.8,6-3,12.1-3.9,18.4c-0.5,4-1.6,9.2,1.6,12.3C392.9,267.7,395.5,266.8,395.4,264.8L395.4,264.8z"/></g><g><path class="st2" d="M399.7,168.2c-8.1,10.6-13.7,22.3-18,34.9c-3.8,11.2-8.1,25.6-5.4,37.5c0.3,1.4,2.7,1.9,3.3,0.4      c4.9-10.8,5.9-23.6,9.3-35c3.7-12.3,8.8-24.2,14.1-35.9C404.1,167.8,401.2,166.2,399.7,168.2L399.7,168.2z"/></g><g><path class="st2" d="M315.3,177c5.3,10.8,9.9,22.2,13.4,33.7c3.2,10.6,4.1,22.4,8.8,32.4c0.4,1,2.1,0.7,2.3-0.3      c2.2-11.3-2.1-23.9-5.6-34.6c-3.9-11.7-9-22.7-15.5-33.3C317.4,172.7,314.2,174.7,315.3,177L315.3,177z"/></g><g><path class="st2" d="M301.5,203.2c1.7,10,1.3,19.9,5.1,29.4c0.4,1.1,1.8,0.8,1.9-0.3c1.4-10.4-1.9-19.9-3.6-30.1      C304.5,200,301.1,200.9,301.5,203.2L301.5,203.2z"/></g></g><path class="st0" d="M575.9,339.2c23.2,0.6,39.9,7.6,45.8,19.6c1.6,3.2,2.5,7,2.6,10.9"/><path class="st0" d="M600.6,303.8c0,2.4-0.4,4.7-1.1,6.9c-3.7,11.2-16.8,15.8-35.5,23.3c-14.7,5.9-27.3,9.2-36.1,11"/><path class="st0" d="M513.2,282.4c0.3-0.1,0.6-0.2,0.9-0.3c26.2-9.2,54.8-19.2,72.7-5.3"/><path class="st0" d="M494.8,212.8c7.2-0.6,14.4,0.4,21.1,4.2c1,0.6,12,7.1,14.9,17.4c5.4,19.4-19,48.2-61.6,69.4"/><path class="st0" d="M376.6,178.8c7-12.4,16.9-20.8,28-23.2c13.9-3.1,33.6,2.4,40.7,15.8c5.1,9.6,2.1,19.9-3.5,37.5    c-2.2,7-5.4,15.8-10.4,25.7"/><path class="st0" d="M311.2,151c19.1-1.5,41,28.4,55.4,76.4"/><path class="st0" d="M324.1,329c-20.7-31.9-43-62.2-51-58.5c-0.9,0.4-1.6,1.3-2,2.5"/><path class="st0" d="M356.9,326.3c-0.2-11.1-1.4-24.8-4.5-39.9c-5.3-26.4-15.5-49.1-30.8-44.2c-0.2,0.2-0.4,0.4-0.6,0.7"/><path class="st0" d="M392,352.6c7.4-14.7,18.1-41.8,7-60.4c-1.4-2.3-5.5-9.2-10.6-9c-6.4,0.3-10.1,11.7-19.2,34.4"/><path class="st0" d="M457.4,385.7c3.8-2.1,7.3-4.9,10.2-8.4c2.4-2.8,5.3-6.3,4.5-10.2c-2.1-10.7-30.8-14.6-50.3-13.5    c-4.5,0.3-8.8,0.8-12.7,1.5"/><path class="st0" d="M435.8,438.8c25.7,1.7,43.1,3.8,45.7-3.7c3.2-9.3-18.5-26-31.6-33.1c-14.7-8-28.4-9.4-35.8-9.6"/><path class="st0" d="M311.9,454.9c15.5-6.1,33-11.2,52.5-14.2c6.7-1,13.3-1.7,19.7-2.2"/></g></g></svg>