<?xml version="1.0" ?><svg viewBox="0 0 1000 1000" xmlns="http://www.w3.org/2000/svg"><path d="m168.47 487.46a483.1 483.1 0 0 1 5.53-92.46 13.5 13.5 0 0 1 1.41-4.82c1.65-2.77 5-4 8-5a513.71 513.71 0 0 1 88-19.73 14.44 14.44 0 0 1 6.38.13 14.63 14.63 0 0 1 4.32 2.69l52 41.61a15.46 15.46 0 0 1 4.62 5c1.08 2.23 1 4.83.92 7.31q-1.57 43.51-5.65 86.81c-.2 2.12-.44 4.35-1.69 6.07s-3.42 2.69-5.45 3.51a293.14 293.14 0 0 1 -93.72 20.77 21.89 21.89 0 0 1 -7.58-.51c-3.19-1-5.77-3.26-8.24-5.48l-48.32-43.36" fill="#fff"/><path d="m169.12 487.46a503.42 503.42 0 0 1 1.57-56.15q1.19-14.16 3.21-28.24c.33-2.26.67-4.53 1-6.79.32-2 .53-4.3 1.79-6 2.26-3 6.85-3.89 10.25-4.94a511.33 511.33 0 0 1 53.29-13.52q13.55-2.67 27.23-4.61a66.67 66.67 0 0 1 6.74-.83 9.09 9.09 0 0 1 6.24 2.06c3.73 2.82 7.33 5.85 11 8.77l22.31 17.86 11.06 8.85c3.52 2.81 7.24 5.48 10.56 8.52a9 9 0 0 1 3.07 5.26 33 33 0 0 1 0 6.52q-.28 7.2-.63 14.4-.69 14.16-1.62 28.29t-2.14 28.5c-.39 4.67-.78 9.34-1.25 14-.19 1.92-.47 4-1.82 5.51s-3.34 2.19-5.14 2.9a295.33 295.33 0 0 1 -51.27 15.18q-13.17 2.64-26.54 4.05-6.75.7-13.53 1.1a39.61 39.61 0 0 1 -6.35.08 12.84 12.84 0 0 1 -6-2.27c-3.65-2.46-6.82-5.8-10.08-8.74l-10.76-9.68-21.15-19-10.39-9.35c-1-.94-2.6.6-1.55 1.55l44 39.57c3.23 2.91 6.41 6.34 10.26 8.45s8.18 1.86 12.47 1.6q13.69-.83 27.28-2.92a291.27 291.27 0 0 0 53.92-13.64c4.17-1.5 8.39-3 12.44-4.81a10.83 10.83 0 0 0 4.49-3.26 10.68 10.68 0 0 0 1.76-5.11c.63-4.8.94-9.65 1.36-14.47s.84-9.74 1.22-14.62q2.3-29.36 3.39-58.8a22.43 22.43 0 0 0 -.35-6.49 11 11 0 0 0 -3-5c-1.54-1.51-3.31-2.79-5-4.13l-5.82-4.66-22.9-18.32-11.64-9.31c-3.65-2.93-7.21-6.1-11.05-8.78s-8.12-1.88-12.51-1.28q-7 1-14 2.14a513.12 513.12 0 0 0 -55.75 12.53q-6.81 1.94-13.58 4.06c-3.47 1.09-7.52 2.08-10 5a11 11 0 0 0 -2.18 5.39c-.41 2.37-.73 4.76-1.06 7.15q-1 7.06-1.78 14.16a466.76 466.76 0 0 0 -2.84 58q.1 7.11.41 14.23c0 .83 1.33.84 1.31 0z"/><path d="m332.27 515.09c1.25-1.72 1.49-4 1.69-6.07q4.11-43.31 5.75-86.79c.09-2.48.16-5.08-.92-7.31a15.46 15.46 0 0 0 -4.62-5l-52-41.61a16.31 16.31 0 0 0 -3.8-2.47l-7.23 88.16c-.33 4-.75 8.26-3.15 11.49-3.46 4.65-9.84 5.76-15.58 6.58a642.3 642.3 0 0 0 -82.57 17.49l-.31.82 47.75 43c2.47 2.22 5.05 4.51 8.24 5.48a21.89 21.89 0 0 0 7.58.51 293.14 293.14 0 0 0 93.72-20.77c2.03-.82 4.18-1.74 5.45-3.51z"/><g fill="#18c4ff"><path d="m273.48 471.48c11.2 13.68 25.73 24.25 40.33 34 4.21 2.82 8.41 5.85 12.85 8.29a.83.83 0 0 0 .84-1.43c-3.48-2.61-7.31-4.84-10.94-7.23s-7.39-4.95-11-7.52a211.63 211.63 0 0 1 -20.75-16.59c-3.62-3.32-7.09-6.84-10.39-10.49-.58-.64-1.47.29-.94.94z"/><path d="m180.17 448.84 10.49-2.11c3.47-.7 7.06-1.26 10.47-2.22.93-.26.51-1.53-.39-1.41-3.51.5-7 1.44-10.47 2.19l-10.45 2.29c-.82.18-.47 1.43.35 1.26z"/><path d="m180.58 457.14 10.49-2.14c3.47-.7 7.06-1.26 10.47-2.22.93-.26.51-1.53-.39-1.41-3.51.5-7 1.44-10.47 2.19l-10.45 2.29c-.82.18-.47 1.43.35 1.26z"/><path d="m181 465.44 10.49-2.11c3.47-.7 7.06-1.26 10.47-2.22.93-.26.51-1.53-.39-1.41-3.51.5-7 1.44-10.47 2.19l-10.45 2.29c-.82.18-.47 1.42.35 1.26z"/></g><path d="m98.06 608.94a483.91 483.91 0 0 1 5.55-92.44 13.3 13.3 0 0 1 1.41-4.82c1.64-2.77 5-4 8-5a513.71 513.71 0 0 1 88-19.73 14.44 14.44 0 0 1 6.38.13 14.6 14.6 0 0 1 4.33 2.69l52 41.61c1.78 1.42 3.62 2.92 4.61 5 1.08 2.23 1 4.83.92 7.31q-1.62 43.47-5.74 86.79c-.2 2.12-.45 4.35-1.7 6.07s-3.41 2.69-5.44 3.51a293.2 293.2 0 0 1 -93.72 20.77 22.2 22.2 0 0 1 -7.59-.51c-3.18-1-5.76-3.26-8.23-5.48l-48.2-43.4" fill="#fff"/><path d="m98.72 608.94a503.42 503.42 0 0 1 1.56-56.15q1.2-14.16 3.22-28.24c.32-2.26.67-4.53 1-6.79.32-2 .52-4.3 1.79-6 2.26-3 6.85-3.89 10.24-4.94a512.61 512.61 0 0 1 53.29-13.52q13.56-2.67 27.23-4.62c2.24-.31 4.49-.73 6.75-.82a9.05 9.05 0 0 1 6.23 2.06c3.74 2.82 7.33 5.85 11 8.77l22.31 17.86 11.06 8.84c3.51 2.82 7.24 5.49 10.55 8.53a9 9 0 0 1 3.07 5.26 32.28 32.28 0 0 1 0 6.52q-.27 7.2-.62 14.4-.69 14.16-1.63 28.29t-2.13 28.5c-.4 4.67-.78 9.34-1.25 14-.19 1.92-.47 4-1.83 5.51s-3.34 2.19-5.14 2.9a295 295 0 0 1 -51.31 15.21q-13.17 2.64-26.54 4.05-6.75.7-13.53 1.1a39.62 39.62 0 0 1 -6.35.08 12.92 12.92 0 0 1 -6-2.27c-3.65-2.46-6.81-5.8-10.07-8.74l-10.62-9.68-21.2-19.05-10.38-9.35c-1-.95-2.61.6-1.56 1.55l44 39.57c3.24 2.91 6.42 6.34 10.27 8.45s8.18 1.86 12.47 1.6q13.69-.83 27.27-2.92a290.3 290.3 0 0 0 53.92-13.65c4.18-1.49 8.39-3 12.45-4.8a9.1 9.1 0 0 0 6.25-8.37c.62-4.8.94-9.65 1.36-14.47s.83-9.74 1.21-14.62q2.31-29.35 3.4-58.8a22.43 22.43 0 0 0 -.36-6.49 10.83 10.83 0 0 0 -3-5 63.55 63.55 0 0 0 -5-4.13l-5.82-4.66-22.89-18.32-11.69-9.29c-3.66-2.93-7.22-6.1-11.06-8.78s-8.12-1.88-12.5-1.28q-7 1-14 2.14a513.48 513.48 0 0 0 -55.74 12.53q-6.82 1.93-13.58 4.06c-3.47 1.09-7.53 2.08-10 5a11.09 11.09 0 0 0 -2.18 5.39c-.4 2.37-.72 4.76-1.06 7.15q-1 7.07-1.77 14.16a468.7 468.7 0 0 0 -2.85 58q.11 7.11.42 14.23c0 .83 1.33.84 1.31 0z"/><path d="m261.86 636.57c1.25-1.72 1.5-4 1.7-6.07q4.11-43.31 5.74-86.79c.1-2.48.16-5.08-.92-7.31-1-2.06-2.83-3.56-4.61-5l-52-41.61a16.2 16.2 0 0 0 -3.8-2.47q-3.61 44.09-7.24 88.16c-.33 4-.74 8.26-3.14 11.49-3.46 4.65-9.85 5.76-15.59 6.58a642.51 642.51 0 0 0 -82.56 17.49l-.31.82 47.75 43c2.47 2.22 5.05 4.51 8.23 5.48a22.2 22.2 0 0 0 7.59.51 293.2 293.2 0 0 0 93.72-20.77c2.03-.82 4.15-1.74 5.44-3.51z"/><g fill="#18c4ff"><path d="m203.08 593c11.2 13.68 25.73 24.25 40.33 34 4.21 2.81 8.41 5.85 12.85 8.29a.83.83 0 0 0 .83-1.43c-3.48-2.61-7.3-4.84-10.93-7.24s-7.4-4.94-11-7.51a210.33 210.33 0 0 1 -20.72-16.57c-3.63-3.32-7.09-6.84-10.4-10.49-.58-.64-1.47.29-.93.94z"/><path d="m109.77 570.32 10.49-2.11c3.47-.7 7.06-1.26 10.47-2.22.93-.26.51-1.53-.39-1.41-3.51.5-7 1.44-10.48 2.19l-10.44 2.29c-.83.18-.47 1.42.35 1.26z"/><path d="m110.18 578.62 10.49-2.11c3.47-.7 7.06-1.26 10.46-2.22.94-.26.52-1.53-.38-1.41-3.51.5-7 1.43-10.48 2.19l-10.44 2.29c-.83.18-.47 1.42.35 1.26z"/><path d="m110.59 586.92 10.49-2.11c3.47-.71 7.06-1.26 10.46-2.22.94-.26.52-1.54-.38-1.41-3.51.5-7 1.43-10.48 2.19l-10.44 2.29c-.83.18-.48 1.42.35 1.26z"/></g><path d="m221.08 586.6a483 483 0 0 1 5.54-92.43 13.44 13.44 0 0 1 1.41-4.82c1.65-2.77 5-4 8-5a513.71 513.71 0 0 1 88-19.73 10.82 10.82 0 0 1 10.7 2.82l52 41.6a15.67 15.67 0 0 1 4.62 5c1.08 2.24 1 4.84.92 7.32q-1.63 43.47-5.74 86.79c-.21 2.12-.45 4.35-1.7 6.07s-3.42 2.69-5.45 3.51a293.35 293.35 0 0 1 -93.72 20.77 22.14 22.14 0 0 1 -7.58-.51c-3.18-1-5.77-3.26-8.24-5.48l-48.24-43.42" fill="#fff"/><path d="m221.73 586.6a503.31 503.31 0 0 1 1.57-56.14q1.19-14.16 3.21-28.24.5-3.41 1-6.79c.32-2 .53-4.3 1.8-6 2.25-3 6.84-3.89 10.24-4.95a513.81 513.81 0 0 1 53.32-13.48q13.54-2.67 27.23-4.62c2.23-.31 4.49-.73 6.74-.83a9.15 9.15 0 0 1 6.24 2.07c3.73 2.82 7.33 5.85 11 8.77l22.31 17.85 11.06 8.85c3.52 2.81 7.24 5.49 10.56 8.53a9 9 0 0 1 3.07 5.26 33 33 0 0 1 0 6.52q-.28 7.2-.63 14.4-.69 14.15-1.62 28.29t-2.14 28.5c-.39 4.67-.78 9.34-1.25 14-.19 1.92-.47 4-1.82 5.51s-3.34 2.18-5.14 2.9a295.08 295.08 0 0 1 -51.32 15.21q-13.17 2.64-26.54 4-6.75.71-13.53 1.1a39.61 39.61 0 0 1 -6.35.08 12.84 12.84 0 0 1 -5.95-2.27c-3.65-2.46-6.82-5.8-10.08-8.74l-10.71-9.66-21.15-19-10.39-9.35c-1.05-1-2.6.6-1.55 1.55l44 39.57c3.23 2.91 6.41 6.34 10.26 8.44s8.18 1.86 12.47 1.61q13.69-.82 27.28-2.92a291.29 291.29 0 0 0 53.92-13.65c4.17-1.49 8.39-3 12.44-4.8a10.83 10.83 0 0 0 4.49-3.26 10.72 10.72 0 0 0 1.76-5.11c.63-4.8.94-9.65 1.36-14.47s.84-9.74 1.22-14.62q2.29-29.35 3.39-58.8a22.41 22.41 0 0 0 -.35-6.49 10.85 10.85 0 0 0 -3-5c-1.54-1.51-3.31-2.79-5-4.13l-5.82-4.66-22.9-18.32-11.72-9.31c-3.65-2.93-7.21-6.1-11-8.78s-8.12-1.89-12.51-1.28q-7 1-14 2.14a513.12 513.12 0 0 0 -55.75 12.53q-6.81 1.94-13.58 4.05c-3.47 1.09-7.52 2.09-9.95 5a11 11 0 0 0 -2.18 5.39c-.41 2.37-.73 4.76-1.06 7.15q-1 7.06-1.78 14.15a467 467 0 0 0 -2.84 58q.11 7.11.41 14.22c0 .84 1.33.85 1.31 0z"/><path d="m384.88 614.24c1.25-1.72 1.49-4 1.7-6.07q4.11-43.3 5.74-86.79c.09-2.48.16-5.08-.92-7.32a15.67 15.67 0 0 0 -4.62-5l-52-41.6a16.14 16.14 0 0 0 -3.78-2.46q-3.63 44.08-7.24 88.15c-.33 4-.75 8.27-3.15 11.5-3.46 4.65-9.84 5.76-15.58 6.58a642.3 642.3 0 0 0 -82.57 17.49l-.31.82 47.75 43c2.47 2.22 5.06 4.51 8.24 5.48a22.14 22.14 0 0 0 7.58.51 293.35 293.35 0 0 0 93.72-20.77c2.02-.83 4.15-1.76 5.44-3.52z"/><g fill="#18c4ff"><path d="m326.09 570.63c11.2 13.68 25.73 24.25 40.33 34 4.21 2.81 8.41 5.85 12.85 8.29a.83.83 0 0 0 .84-1.43c-3.48-2.61-7.31-4.84-10.94-7.24s-7.39-4.94-11-7.51a211.63 211.63 0 0 1 -20.73-16.57c-3.62-3.33-7.09-6.84-10.39-10.49-.58-.64-1.47.29-.94.94z"/><path d="m232.78 548 10.49-2.11c3.47-.71 7.06-1.26 10.47-2.22.93-.26.52-1.54-.39-1.41-3.5.5-7 1.43-10.47 2.19l-10.45 2.29c-.82.18-.47 1.42.35 1.26z"/><path d="m233.19 556.29 10.49-2.11c3.47-.71 7.06-1.26 10.47-2.22.93-.26.51-1.54-.39-1.41-3.51.5-7 1.43-10.47 2.19s-7 1.52-10.45 2.29c-.82.18-.47 1.42.35 1.26z"/><path d="m233.6 564.59 10.49-2.11c3.47-.71 7.06-1.26 10.47-2.22.93-.26.51-1.54-.39-1.41-3.51.5-7 1.43-10.47 2.19s-7 1.52-10.45 2.29c-.82.18-.47 1.42.35 1.26z"/><circle cx="842.23" cy="738.14" r="55.37"/><path d="m895.75 738.14a53.22 53.22 0 1 1 -.61-8.15 53 53 0 0 1 .61 8.15c0 2.38 3.7 2.39 3.69 0a57.29 57.29 0 1 0 -.71 9 59.83 59.83 0 0 0 .71-9c.01-2.37-3.68-2.38-3.69 0z"/><circle cx="432.31" cy="738.14" r="55.37"/><path d="m485.83 738.14a53 53 0 1 1 -.6-8.15 54 54 0 0 1 .6 8.15c0 2.38 3.7 2.39 3.69 0a57.29 57.29 0 1 0 -.71 9 59.83 59.83 0 0 0 .71-9c.01-2.37-3.68-2.38-3.69 0z"/><path d="m378.66 739h55.37v54.51h-55.37z"/><path d="m434 791.66h-55.34l1.85 1.85v-54.51l-1.85 1.85h55.34l-1.82-1.85v54.51a1.85 1.85 0 0 0 3.7 0v-54.51a1.88 1.88 0 0 0 -1.85-1.84h-55.37a1.87 1.87 0 0 0 -1.84 1.84v54.51a1.87 1.87 0 0 0 1.84 1.85h55.34a1.85 1.85 0 0 0 0-3.7z"/></g><circle cx="378.66" cy="738.14" r="55.37"/><path d="m432.18 738.14a53 53 0 1 1 -.6-8.15 53.92 53.92 0 0 1 .6 8.15 1.85 1.85 0 0 0 3.7 0 57.25 57.25 0 1 0 -.71 9 61.17 61.17 0 0 0 .71-9 1.85 1.85 0 0 0 -3.7 0z"/><g fill="#18c4ff"><circle cx="378.66" cy="738.14" r="21.83"/><path d="m788.58 739h55.37v54.51h-55.37z"/><path d="m844 791.66h-55.42l1.85 1.85v-54.51l-1.85 1.85h55.42l-1.9-1.85v54.51a1.85 1.85 0 0 0 3.7 0v-54.51a1.88 1.88 0 0 0 -1.85-1.84h-55.37a1.87 1.87 0 0 0 -1.85 1.84v54.51a1.88 1.88 0 0 0 1.85 1.85h55.42a1.85 1.85 0 0 0 0-3.7z"/></g><circle cx="788.58" cy="738.14" r="55.37"/><path d="m842.1 738.14a53 53 0 1 1 -.6-8.15 54 54 0 0 1 .6 8.15 1.85 1.85 0 0 0 3.7 0 57.45 57.45 0 1 0 -.72 9 59.84 59.84 0 0 0 .72-9 1.85 1.85 0 0 0 -3.7 0z"/><g fill="#18c4ff"><circle cx="788.58" cy="738.14" r="21.83"/><circle cx="642.26" cy="738.14" r="55.37"/><path d="m695.78 738.14a53.22 53.22 0 1 1 -.61-8.15 53 53 0 0 1 .61 8.15c0 2.38 3.7 2.39 3.69 0a57.25 57.25 0 1 0 -.71 9 59.83 59.83 0 0 0 .71-9c.01-2.37-3.68-2.38-3.69 0z"/><circle cx="232.34" cy="738.14" r="55.37"/><path d="m285.86 738.14a53.22 53.22 0 1 1 -.61-8.15 53 53 0 0 1 .61 8.15c0 2.38 3.7 2.39 3.69 0a57.29 57.29 0 1 0 -.71 9 59.83 59.83 0 0 0 .71-9c.01-2.37-3.68-2.38-3.69 0z"/><path d="m178.69 739h55.37v54.51h-55.37z"/><path d="m234.06 791.66h-55.37l1.85 1.85v-54.51l-1.85 1.85h55.37l-1.85-1.85v54.51a1.85 1.85 0 0 0 3.7 0v-54.51a1.88 1.88 0 0 0 -1.85-1.84h-55.37a1.86 1.86 0 0 0 -1.84 1.84v54.51a1.87 1.87 0 0 0 1.84 1.85h55.37a1.85 1.85 0 0 0 0-3.7z"/><path d="m239.74 738.14h674.15a17.71 17.71 0 0 0 17.59-19.81l-11.89-100a39.55 39.55 0 0 0 -34-34.52l-86-11.71a28.48 28.48 0 0 1 -24.07-22.53l-34.3-167.88a28.24 28.24 0 0 0 -27.68-22.6h-218.61c-16.4 0 24.17 13.29 24.17 29.68v212.62h-261.88a17.47 17.47 0 0 0 -17.48 17.47z"/><path d="m239.74 738.81 24.94.08q33.26.12 66.5.2 47.77.12 95.55.19 55.71.09 111.43.15h116.19q53.92 0 107.84 0h140.44 10.58a19.9 19.9 0 0 0 12.37-4c6.06-4.72 7.92-11.76 7-19.08l-11-92.26c-.59-4.94-1-9.86-2.7-14.6a41.3 41.3 0 0 0 -25.43-25.25c-4.85-1.67-10-2.12-15.08-2.81l-23.65-3.22-49.73-6.77c-6.41-.87-12.49-1.86-17.89-5.89-6.07-4.52-9.24-11.06-10.72-18.29l-17.57-86.08c-5.41-26.49-10.66-53-16.23-79.46-3.19-15.17-16.13-24.06-31.16-24.06h-214.6c-2 0-5.27-.52-6.68 1.13-3.07 3.6 8.89 9.45 10.78 10.73 6.45 4.33 16.38 10.53 16.76 19.24.07 1.65 0 3.32 0 5v207.63l1.44-1.45h-253.12c-9 0-18.1-.54-24.18 7.88-3.31 4.57-3.58 9.61-3.58 14.94v17.55q0 47.82.15 95.63v2.22a1.32 1.32 0 0 0 2.64 0c0-28.06.14-56.12.15-84.18 0-11.53-.1-23.06 0-34.58a16.29 16.29 0 0 1 16.16-16.53h5.47 190.1c21.71 0 43.46.41 65.16 0h1a1.46 1.46 0 0 0 1.44-1.44v-207.43c0-1.73.07-3.47 0-5.2-.29-7.86-7-13.61-12.87-18-3.42-2.57-7-4.85-10.58-7.21a36.75 36.75 0 0 1 -3.55-2.52c-.22-.19-.74-.89-1-1s-.41.54-.18.64c.85.37 4.86-.22 6-.22h213.72c7.17 0 14 2 19.42 6.86 5 4.53 7.52 10.42 8.84 16.88l6.56 32.06 21.52 105.41c1.89 9.23 3.73 18.47 5.66 27.69a30.5 30.5 0 0 0 14.89 20.67c5 2.74 10.26 3.43 15.74 4.17l50 6.81 23.2 3.15c4.67.64 9.46 1.06 14 2.48a38.53 38.53 0 0 1 26.12 30.14c.6 3.56.9 7.19 1.33 10.77l6 50.65c1.56 13.12 3.21 26.24 4.69 39.37 1.13 10.06-5.73 18.95-16.15 19.17-.62 0-1.25 0-1.87 0h-210l-112.78.05q-57 0-114.08.09l-103.32.17q-40.25.07-80.51.21l-45.63.15h-6a.67.67 0 0 0 0 1.33z"/></g><path d="m921.36 633.23h-212.47v39.86h217.21z" fill="#fff"/><path d="m239.74 738.14h674.15a17.71 17.71 0 0 0 17.59-19.81l-.24-2h-691.5z"/><path d="m68.39 738.14h674.15a17.71 17.71 0 0 0 17.59-19.81l-11.89-100a39.55 39.55 0 0 0 -34-34.52l-86-11.71a28.49 28.49 0 0 1 -24.08-22.53l-34.29-167.83a28.24 28.24 0 0 0 -27.68-22.6h-164.76a29.68 29.68 0 0 0 -29.68 29.68v114.61a98 98 0 0 1 -97.95 98h-163.94a17.47 17.47 0 0 0 -17.47 17.47z" fill="#18c4ff"/><path d="m68.39 738.81 31.51.11q41 .15 82 .24 57.35.17 114.68.2 64.83.12 129.64.1 63.42 0 126.84 0h188.31a21.23 21.23 0 0 0 10.63-2.46c7.87-4.51 10.18-12.79 9.17-21.25-3.84-32.32-7.54-64.67-11.53-97a41.69 41.69 0 0 0 -17.13-29.18c-6.86-4.87-14.53-6.61-22.65-7.72l-56.51-7.69-22.08-3c-10.75-1.46-20.25-6.69-24.42-17.28-1.32-3.35-1.86-7.07-2.58-10.58l-3.84-18.79-24-117.44-3.93-19.24a94.74 94.74 0 0 0 -2-9.31 30 30 0 0 0 -28.4-20.81c-3.11 0-6.22 0-9.33 0h-153.7c-18.89 0-32.75 14-32.75 32.81v104.62c0 4.7.11 9.42-.17 14.12a96.5 96.5 0 0 1 -85.73 90.11c-11.1 1.19-22.55.56-33.69.56h-136.67c-5.12 0-10 .1-14.52 3.06-6.77 4.42-8.62 11.46-8.62 19v19.41q0 31.15.08 62.29 0 17.24.07 34.46a1.32 1.32 0 0 0 2.64 0c0-32.61.15-65.23.15-97.85v-18.78c0-.89 0-1.77 0-2.66a16.23 16.23 0 0 1 16-16c9.41-.27 18.85 0 28.26 0h117.82c12.46 0 25 .51 37.29-1.91a99.33 99.33 0 0 0 79.48-87.84c.54-5.49.47-11 .47-16.5v-105c0-9 2.34-17.35 9.25-23.67 6-5.52 13.56-7.35 21.5-7.35h153.52c2.9 0 5.81-.05 8.71 0a27.27 27.27 0 0 1 26.41 21.82c6.56 30.29 12.41 60.75 18.62 91.12l11.46 56.09 3.35 16.38c1.07 5.23 2.31 10.28 5.42 14.78 5.45 7.88 13.63 11.75 22.88 13l21.7 3 56.8 7.72c8 1.09 15.54 2.65 22.33 7.48 9.28 6.61 14.56 16.76 15.89 27.93l5.81 48.79c1.92 16.1 3.88 32.19 5.75 48.29 1.19 10.26-5.17 19.54-16.08 19.78-.83 0-1.66 0-2.48 0h-137.56-119.46l-129.23.05q-61.18 0-122.37.18-49.36.09-98.73.23-28.38.08-56.77.18h-7.51a.67.67 0 0 0 0 1.33z" fill="#18c4ff"/><path d="m347.08 503.43a101.13 101.13 0 0 1 -12.08 45.68 97.8 97.8 0 0 1 -30.45 33.89 96.46 96.46 0 0 1 -43.46 16.33 146.92 146.92 0 0 1 -16.78.64h-51.06-34.57-33.19-26c-4.34 0-8.72 0-13.06.15h-.41c-.52 0 .38-.07 0 0h-.15a1.32 1.32 0 0 0 0 2.63h.13c.36.06-.52 0 .19 0h.28 1.83l6.74.08c7.92.1 15.85 0 23.78 0h32.33 35.11 32 23.18c3.62 0 7.26.06 10.89 0a99 99 0 0 0 79.51-43.48 96.13 96.13 0 0 0 16-43.81 98.45 98.45 0 0 0 .48-12 .67.67 0 0 0 -1.33 0z"/><path d="m68.39 738.14h674.15a17.71 17.71 0 0 0 17.59-19.81l-.24-2h-691.5z"/><path d="m68.39 738.81q9.08.09 18.15.18 24.48.19 49 .32 36.28.18 72.59.17 44.28.06 88.57 0h96.66 98.24 91 77.15 55.47c8.74 0 17.49 0 26.22-.15h1.15a1.32 1.32 0 0 0 0-2.63c-6 0-12.1-.07-18.16-.11-16.32-.09-32.64 0-49 0h-72.59-88.57-96.66-98.24-91c-25.72 0-51.44 0-77.15.11q-27.73.14-55.48.32c-8.73.07-17.48 0-26.22.25h-1.13a.67.67 0 0 0 0 1.33z"/><path d="m786.79 567a28.41 28.41 0 0 1 -11.27-17.4l-31.65-154.9h-224.77v172.3z" fill="#fff"/><path d="m693.21 523.85a58.8 58.8 0 0 0 -1.39-7.21c-4.44-16.26-16.9-32.36-34.25-35.7a33.55 33.55 0 0 0 -24.6 4.34c-7.57 4.88-12.73 12.33-15.68 20.75-6.21 17.69-1.22 38.38 10.68 52.48a44.36 44.36 0 0 0 9.65 8.51h39.78c13.19-9.43 17.9-27.61 15.81-43.17zm-37.47 34.68.35.05a1.48 1.48 0 0 1 -.35-.05zm20.65-13.53c-.06.15-.13.28-.16.35q-.26.55-.54 1.11c-.4.79-.83 1.56-1.3 2.31s-.85 1.34-1.31 2c-.29.31-.55.68-.84 1a37.6 37.6 0 0 1 -3.29 3.15l-.92.62a23.53 23.53 0 0 1 -2.17 1.26l-.88.43c-.75.26-1.49.53-2.25.74s-1.47.37-2.22.51h-.08l-.74.08a38.44 38.44 0 0 1 -4.43-.09c-.27-.05-.55-.09-.82-.15a23.29 23.29 0 0 1 -2.36-.6c-.72-.21-1.42-.45-2.11-.71-.31-.15-.62-.27-.92-.42a34.34 34.34 0 0 1 -4.23-2.47l-.92-.65c-.63-.52-1.26-1.05-1.86-1.6a40.35 40.35 0 0 1 -3.62-3.78c-.23-.27-.44-.56-.67-.82-.56-.76-1.1-1.54-1.61-2.34a45.85 45.85 0 0 1 -2.73-4.89c-.2-.41-.39-.82-.58-1.24-.35-.9-.7-1.82-1-2.74a49.06 49.06 0 0 1 -1.62-6.08q-.15-.72-.27-1.44c0-.13-.09-.56-.13-.85s0-.43-.06-.52c-.05-.55-.1-1.1-.14-1.65a46.61 46.61 0 0 1 0-5.79c.05-.84.14-1.67.22-2.5.08-.51.17-1 .27-1.52a40.53 40.53 0 0 1 1.39-5.22c.14-.41.28-.8.43-1.2 0-.1.13-.33.21-.54a4.06 4.06 0 0 1 .18-.39c.2-.44.41-.87.64-1.3a35.47 35.47 0 0 1 2.61-4.24c.21-.24.4-.49.61-.73.56-.64 1.14-1.25 1.76-1.84s1-.93 1.57-1.39c.34-.23.67-.47 1-.69.65-.42 1.32-.81 2-1.16l1-.51a29.48 29.48 0 0 1 4.5-1.26h.11l.53-.06c.8-.06 1.61-.08 2.41-.07s1.38.07 2.07.12c.32.06.64.11 1 .18a28.52 28.52 0 0 1 4.52 1.32h.05c.28.13.55.25.82.39.76.37 1.5.77 2.23 1.2s1.35.82 2 1.27c.33.22.65.45 1 .68a42.21 42.21 0 0 1 3.74 3.46c.58.61 1.15 1.24 1.69 1.89.22.26.43.54.66.8l.17.24a45.11 45.11 0 0 1 3 4.65c.44.79.86 1.59 1.25 2.4.2.41.39.83.58 1.24v.09.06a54.76 54.76 0 0 1 1.85 5.6c.25.95.49 1.91.69 2.88.09.48.19 1 .27 1.44 0 .17.12.77.17 1.11s0 .41.06.49c0 .48.09 1 .12 1.42.08 1 .12 2 .12 3 0 1.85-.13 3.68-.29 5.53-.07.42-.15.85-.23 1.27-.18.93-.39 1.85-.63 2.77s-.46 1.65-.73 2.47q-.2.6-.42 1.2z"/><path d="m411.51 567h203.92a28.5 28.5 0 0 1 -11.27-17.4l-31.64-154.9h-161a4.47 4.47 0 0 0 -4.47 4.47v163.39a4.46 4.46 0 0 0 4.46 4.44z" fill="#fff"/><path d="m411.51 567h203.92a28.5 28.5 0 0 1 -11.27-17.4l-31.64-154.9h-161a4.47 4.47 0 0 0 -4.47 4.47v163.39a4.46 4.46 0 0 0 4.46 4.44z" fill="#fff"/><path d="m551.27 530.76c-2.86-11.5-8-24.37-19.35-27.88-5.79-1.79-12.76-.94-17.17-5.09a16.13 16.13 0 0 1 -3.55-5.7c-4.24-10.21-5.43-22.62-14.09-29.49-8-6.31-19.28-5.45-29.38-4.26-4.17.48-8.6 1.08-11.83 3.77-3.08 2.56-4.49 6.55-5.78 10.35q-4.33 12.87-8.69 25.74c-.61 1.81-1.29 3.72-2.78 4.92s-3.27 1.42-5 1.75a39.41 39.41 0 0 0 -15.33 5.94 34.06 34.06 0 0 0 -11.32 14.05v37.7a4.46 4.46 0 0 0 4.47 4.46h146a250.44 250.44 0 0 0 -6.2-36.26z" fill="#18c4ff"/><path d="m567.46 519.6c-3.18-7.63-8.21-14-17-16.65-15.78-4.74-32.18-6.14-48.46-3.14-12 2.21-24.53 7.5-30.09 18.33-2.62 5.12-3.4 11-3.69 16.73a110.81 110.81 0 0 0 3.09 32.13h105.32c.61 0-3.1-22.42-3.4-24-1.37-7.56-2.72-16.07-5.77-23.4z"/><path d="m503.36 567h99.42c7.62-5.81 14.56-13.69 14.87-23.19a24.12 24.12 0 0 0 -2.34-10.78c-1-2.32-2.52-4.62-4.81-5.71-4.54-2.17-9.66 1.21-13.54 4.41l-20.54 16.92c-6 4.91-12.42 10-20.11 10.82-5.76.6-11.57-1.39-16.43-4.55s-8.88-7.41-12.69-11.77a227.22 227.22 0 0 1 -17.84-23.29l-16 31.7c3.83 4 5.92 9.31 8.94 13.95.37.49.71 1.02 1.07 1.49z"/><circle cx="178.69" cy="738.14" r="55.37"/><path d="m232.21 738.14a53 53 0 1 1 -.6-8.15 54 54 0 0 1 .6 8.15 1.85 1.85 0 0 0 3.7 0 57.25 57.25 0 1 0 -.71 9 61.17 61.17 0 0 0 .71-9 1.85 1.85 0 0 0 -3.7 0z"/><circle cx="178.69" cy="738.14" fill="#fff" r="21.83"/><path d="m242.06 738.14h-16a47.37 47.37 0 0 0 -94.73 0h-16a63.37 63.37 0 1 1 126.74 0z"/><path d="m588.61 739h55.37v54.51h-55.37z" fill="#18c4ff"/><path d="m644 791.66h-55.39l1.85 1.85v-54.51l-1.85 1.85h55.39l-1.87-1.85v54.51a1.85 1.85 0 0 0 3.69 0v-54.51a1.87 1.87 0 0 0 -1.84-1.84h-55.37a1.87 1.87 0 0 0 -1.85 1.84v54.51a1.88 1.88 0 0 0 1.85 1.85h55.39a1.85 1.85 0 0 0 0-3.7z" fill="#18c4ff"/><circle cx="588.61" cy="738.14" r="55.37"/><path d="m642.13 738.14a53 53 0 1 1 -.6-8.15 54 54 0 0 1 .6 8.15c0 2.38 3.7 2.39 3.69 0a57.29 57.29 0 1 0 -.71 9 58.54 58.54 0 0 0 .71-9c.01-2.37-3.68-2.38-3.69 0z"/><circle cx="588.61" cy="738.14" fill="#fff" r="21.83"/><path d="m652 738.14h-16a47.36 47.36 0 0 0 -94.72 0h-16a63.37 63.37 0 0 1 126.74 0z"/><path d="m750 633.23h-34.15a7 7 0 0 0 -7 7v25.93a7 7 0 0 0 7 7h38.9z"/><path d="m68.39 738.81a.67.67 0 0 0 0-1.33.67.67 0 0 0 0 1.33z"/><path d="m347.08 388.82c-.14 8.4-.24 16.79-.35 25.18-.23 16.59-.26 33.2-.29 49.79q0 18.39-.05 36.77a117 117 0 0 1 -.92 16.31 96.44 96.44 0 0 1 -95.67 83.13h-38.8-49.81-47.44c-8.87 0-17.74.06-26.61.14h-1.28a1.32 1.32 0 0 0 0 2.63c6.39 0 12.77.16 19.15.16h44.5 51.13 39 9.16a104.48 104.48 0 0 0 21.81-2.2 99.4 99.4 0 0 0 78.46-97.26q0-13.77 0-27.55 0-25.16-.22-50.3-.14-17.46-.42-34.92v-1.75a.67.67 0 0 0 -1.33 0z"/><path d="m742.54 738.81c11.43 0 19.75-9.95 18.54-21.14-.58-5.39-1.21-10.78-1.81-16.17q-3.36-29.85-6.9-59.67-1.2-10.26-2.42-20.5c-.15-1.28-.29-2.56-.47-3.84a40.92 40.92 0 0 0 -8.19-19.5 41.74 41.74 0 0 0 -27.74-15.61l-18.85-2.57-57.57-7.81c-6-.82-12.28-1.2-17.71-4.1a27.31 27.31 0 0 1 -13.53-17c-.28-1.08-.49-2.17-.71-3.26l-7.39-36.25-12.36-60.61-10.81-53-2.89-14.13c-1.49-7.31-4.52-14.08-10.44-18.92a30.14 30.14 0 0 0 -19.1-6.81 1.32 1.32 0 0 0 0 2.64 27.4 27.4 0 0 1 26.31 21.88c.64 3.05 1.25 6.12 1.88 9.17l9.69 47.37q6.21 30.31 12.41 60.64l9 44c.58 2.83 1 5.75 1.83 8.53a30.26 30.26 0 0 0 25.09 21.49q23.4 3.21 46.8 6.35l27.71 3.76c4.85.66 9.88 1 14.66 2.16a38.57 38.57 0 0 1 28.74 29.23c.93 4.34 1.22 8.87 1.75 13.27 2.26 18.94 4.49 37.88 6.87 56.81l3.15 25c.64 5.12 2 10 .55 15a17.16 17.16 0 0 1 -16.1 12.33.67.67 0 0 0 0 1.33z"/><path d="m913.89 738.81c11.44 0 19.75-9.95 18.55-21.14-.59-5.39-1.22-10.78-1.82-16.17q-3.36-29.85-6.9-59.67-1.2-10.26-2.42-20.5c-.15-1.28-.29-2.56-.46-3.84a41 41 0 0 0 -8.19-19.5 41.78 41.78 0 0 0 -27.75-15.61l-18.85-2.57-57.57-7.81c-6-.82-12.28-1.2-17.71-4.1a27.31 27.31 0 0 1 -13.53-17c-.28-1.08-.49-2.17-.71-3.26l-7.39-36.25-12.36-60.61-10.81-53-2.88-14.13c-1.49-7.31-4.52-14.08-10.45-18.92a30.14 30.14 0 0 0 -19.1-6.81 1.32 1.32 0 0 0 0 2.64 27.4 27.4 0 0 1 26.31 21.88c.65 3.05 1.26 6.12 1.88 9.17l9.69 47.37q6.21 30.31 12.41 60.64l9 44c.58 2.83 1 5.75 1.83 8.53a30.27 30.27 0 0 0 25.09 21.49q23.4 3.21 46.8 6.35l27.71 3.76c4.86.66 9.88 1 14.66 2.16a38.57 38.57 0 0 1 28.74 29.23c.93 4.34 1.23 8.87 1.75 13.27 2.26 18.94 4.49 37.88 6.87 56.81l3.15 25c.64 5.12 2 10 .55 15a17.16 17.16 0 0 1 -16.1 12.33.67.67 0 0 0 0 1.33z"/><path d="m68.39 738.81a.67.67 0 0 0 0-1.33.67.67 0 0 0 0 1.33z"/><path d="m68.39 643.42h17.48v41.23h-17.48z"/><path d="m85.86 682.8h-17.47l1.85 1.85v-41.23l-1.85 1.84h17.47l-1.86-1.84v41.23a1.85 1.85 0 0 0 3.69 0v-41.23a1.87 1.87 0 0 0 -1.85-1.85h-17.45a1.88 1.88 0 0 0 -1.85 1.85v41.23a1.88 1.88 0 0 0 1.85 1.85h17.47a1.85 1.85 0 0 0 0-3.7z"/><path d="m547.48 439.1c1.54-1.42 4.35-.45 5.12 1.49a5 5 0 0 1 -1.84 5.56c1.29.2 2.67-.32 3.89.14 1.61.62 2.15 2.78 1.53 4.38a8.16 8.16 0 0 1 -3.51 3.66c1.19 0 2.54.1 3.32 1 1.09 1.23.44 3.21-.62 4.45a13.45 13.45 0 0 1 -5.11 3.43 12.26 12.26 0 0 1 -5.3 1.21 10 10 0 0 1 -7.44-4.56 23.13 23.13 0 0 1 -3.21-8.4 65.77 65.77 0 0 0 -2.11-8.79"/><path d="m547.81 439.67a2.61 2.61 0 0 1 3.79 1c.82 1.56-.1 3.55-1.41 4.51a1.15 1.15 0 0 0 .57 2.12c1.69.2 4.25-.75 4.49 1.73.19 2-1.73 3.34-3.18 4.28a1.2 1.2 0 0 0 .6 2.22 3.49 3.49 0 0 1 2.34.53 1.75 1.75 0 0 1 0 2.05 8.29 8.29 0 0 1 -3.88 3.37c-3.22 1.67-6.75 2.55-10 .41-6.28-4.19-5.47-13.23-8-19.51-.5-1.27-2.52-.79-2.1.58 2.08 6.75 1.88 15.4 7.84 20.24a10.11 10.11 0 0 0 9.21 2c3.16-.85 7-2.63 8.72-5.55a4.56 4.56 0 0 0 .31-4.64c-1-1.58-2.88-1.83-4.56-1.86l.6 2.22c2.39-1.56 4.81-3.83 4.24-7a4.21 4.21 0 0 0 -1.87-2.91c-1.51-.9-3.24-.35-4.88-.48l.81 1.94c1.94-1.86 3.19-5.05 1.47-7.47a4.15 4.15 0 0 0 -6-.85c-.55.5.19 1.5.8 1z"/><path d="m531.73 499.15-2.85 13a2.13 2.13 0 0 1 -.3.82 2.07 2.07 0 0 1 -1.51.63 25.91 25.91 0 0 1 -19.78-6.27 5.08 5.08 0 0 1 -1.77-2.47 5.77 5.77 0 0 1 .39-3 130.44 130.44 0 0 0 5.23-24.24" fill="#fff"/><path d="m549 459.71c-.24-2.1.25-17-15.77-17.89a26.13 26.13 0 0 0 -16.85 5.23 46.85 46.85 0 0 0 -4.33 3.64c-14.75 14.05-.79 46.51 20.34 48.07 13.23 1 16.56-12 17.41-22.7.38-5.44-.24-10.92-.8-16.35z" fill="#fff"/><path d="m532.34 499.68c16.87 1.1 19.16-19.88 18.29-32.28-.21-3.07-.64-6.12-.86-9.19a27.1 27.1 0 0 0 -.87-5.37 15.64 15.64 0 0 0 -9.9-10.84 24 24 0 0 0 -13.7-.23c-5.37 1.42-9.92 4.55-13.92 8.32-.87.82.44 2.12 1.31 1.31 6.43-6.06 14.94-10.19 24-8.15a13.71 13.71 0 0 1 10.28 9.4c1.13 3.48 1.19 7.34 1.56 10.95.78 7.68.84 15.6-1.51 23a18.55 18.55 0 0 1 -4.91 8.33 12.84 12.84 0 0 1 -9.69 2.92c-1.18-.08-1.18 1.77 0 1.84z"/><path d="m537.06 468c.14 1 .25 2.07.35 3.11a9.85 9.85 0 0 0 .22 1.34 2.41 2.41 0 0 0 .91 1.32 1.43 1.43 0 0 1 .51.66 1.25 1.25 0 0 1 0 .83 1.32 1.32 0 0 1 -.47.64l-.31.16a2.31 2.31 0 0 0 -.62.5 1.26 1.26 0 0 0 0 1.74 1.23 1.23 0 0 0 1.74 0c.12-.15 0 0 .07-.09a2.34 2.34 0 0 1 .27-.15 4.3 4.3 0 0 0 .63-.47 3.61 3.61 0 0 0 .92-1.36 3.52 3.52 0 0 0 -.25-3.11 3.81 3.81 0 0 0 -1.1-1.16 2.13 2.13 0 0 0 -.65-.38c-.17-.06-.13-.05-.19-.29-.3-1.15-.53-2.31-.76-3.47-.14-.71-1.38-.56-1.29.18z"/><path d="m512.55 470.92.09-.05-.16.07.17-.05h-.18.22-.19a2 2 0 0 1 .35.09l-.18-.07a1.23 1.23 0 0 1 .25.14l-.16-.12a1.36 1.36 0 0 1 .24.24l-.12-.16a2.05 2.05 0 0 1 .25.46l-.08-.2a2.81 2.81 0 0 1 .18.56v-.23a.48.48 0 0 1 0 .17v-.24a.29.29 0 0 1 0 .09l.09-.21.14-.19.18-.14.22-.09h.24l.78.45s0 0 0-.05l.09.22a.86.86 0 0 1 -.06-.23v.25a1.13 1.13 0 0 1 0-.26v.25a1.16 1.16 0 0 1 0-.18 1.08 1.08 0 0 0 -.11-.81l-.14-.18a.77.77 0 0 0 -.29-.19.86.86 0 0 0 -.59-.05l-.24.1a1.66 1.66 0 0 0 -.21.16.93.93 0 0 0 -.28.49 2.42 2.42 0 0 0 0 .47 1.88 1.88 0 0 0 .26.89.92.92 0 0 0 .46.41.94.94 0 0 0 .62.05 1 1 0 0 0 .55-.38 1.25 1.25 0 0 0 .2-1 2.06 2.06 0 0 0 -.25-.59 2.34 2.34 0 0 0 -.26-.43 2.69 2.69 0 0 0 -.26-.33 3 3 0 0 0 -.33-.28 1.82 1.82 0 0 0 -.56-.27 1.46 1.46 0 0 0 -1.5.39.64.64 0 0 0 0 .83.65.65 0 0 0 .82.17z"/><path d="m524.68 462.85a14.5 14.5 0 0 1 3-1.21 15 15 0 0 1 1.59-.33l.69-.11a5.7 5.7 0 0 0 1-.14.83.83 0 0 0 .61-.79.83.83 0 0 0 -.61-.8 6.2 6.2 0 0 0 -2 .18 16.6 16.6 0 0 0 -1.67.47 16.87 16.87 0 0 0 -3.3 1.56.68.68 0 0 0 .68 1.17z"/><path d="m546.9 461.39a8.27 8.27 0 0 0 -1.1-.85 8.71 8.71 0 0 0 -1.28-.59 8.42 8.42 0 0 0 -1.21-.36c-.25 0-.51-.09-.77-.12a1.49 1.49 0 0 0 -.81 0 .75.75 0 0 0 -.54.63.73.73 0 0 0 .36.75 1.27 1.27 0 0 0 .53.17h.31.3.15a6.78 6.78 0 0 1 1.18.29 4.79 4.79 0 0 1 .57.21c-.11-.05.15.06.17.08l.27.13a10 10 0 0 1 1.07.58c.62.39 1.35-.53.79-1z"/><path d="m531.07 499a47.4 47.4 0 0 0 -1.71 6.68l-.71 3.12-.38 1.69a6.51 6.51 0 0 1 -.39 1.73c-.46.71-1.88.55-2.62.58a27.74 27.74 0 0 1 -3-.07 25 25 0 0 1 -10.73-3.47 15.75 15.75 0 0 1 -4.54-3.6c-1.34-1.77.23-4.63.77-6.51q.93-3.21 1.7-6.46c1.15-4.88 2-9.82 2.72-14.78a1.05 1.05 0 1 0 -2.08-.28 104 104 0 0 1 -2.7 15.48q-.94 3.82-2.11 7.59c-.64 2.09-1.32 4.1.1 6a17.22 17.22 0 0 0 4.82 4 27.57 27.57 0 0 0 5.69 2.66 27.11 27.11 0 0 0 6.36 1.29c1.85.16 4.33.39 6.09-.32a2.51 2.51 0 0 0 1.49-1.92c.36-1.43.61-2.89.92-4.34a61.72 61.72 0 0 0 1.67-8.92c.05-.82-1.08-.85-1.34-.18z"/><path d="m544.17 467.31c0-.06 0-.15 0-.2a.68.68 0 0 0 0-.14.27.27 0 0 0 0-.13 1 1 0 0 0 -.09-.21l.08.18a1.18 1.18 0 0 0 -.26-.43.94.94 0 0 0 -.69-.27 1 1 0 0 0 -.55.17 1.3 1.3 0 0 0 -.41.43 1.74 1.74 0 0 0 -.21.77 1.32 1.32 0 0 0 .36 1 1 1 0 0 0 .91.24 1.19 1.19 0 0 0 .26-.11s.08-.07.11-.08l.11-.09.15-.19a.85.85 0 0 0 .11-.26.67.67 0 0 0 0-.37.72.72 0 0 0 -.11-.35.67.67 0 0 0 -.24-.26.76.76 0 0 0 -.32-.17h-.25a.88.88 0 0 0 -.47.13l-.19.14a1.06 1.06 0 0 0 -.24.41 0 0 0 0 1 0 0l.1-.22.14-.19.19-.14.23-.1.91.24.14.19v-.07l.1.22a.46.46 0 0 1 0-.2v.25a1.07 1.07 0 0 1 0-.25v.23a.65.65 0 0 1 0-.13l-.09.21a.41.41 0 0 1 .05-.09l-.14.18v-.05l-.18.14-.2.09h.07-.23a.81.81 0 0 0 .34-.08h.12l-.19.08h.05-.21.06-.21l-.18-.08-.15-.12-.11-.15s0 0 0 0l-.08-.17.07.17a.61.61 0 0 0 .19.2.24.24 0 0 0 .15.09.46.46 0 0 0 .28.06h.19l.17-.07a.61.61 0 0 0 .2-.19.5.5 0 0 0 .12-.24z"/><path d="m530.61 467.31c0-.06 0-.15 0-.2a.68.68 0 0 0 0-.14.27.27 0 0 0 0-.13 1 1 0 0 0 -.09-.21l.08.18a1.18 1.18 0 0 0 -.26-.43.94.94 0 0 0 -.69-.27 1 1 0 0 0 -.55.17 1.21 1.21 0 0 0 -.41.43 1.74 1.74 0 0 0 -.21.77 1.32 1.32 0 0 0 .36 1 1 1 0 0 0 .91.24 1.19 1.19 0 0 0 .26-.11s.08-.07.11-.08l.11-.09.15-.19a.85.85 0 0 0 .11-.26.67.67 0 0 0 0-.37.85.85 0 0 0 -.11-.35.67.67 0 0 0 -.24-.26.76.76 0 0 0 -.32-.17h-.25a.88.88 0 0 0 -.47.13l-.19.14a1.06 1.06 0 0 0 -.24.41 0 0 0 0 1 0 0l.1-.22.14-.19.19-.14.23-.1.91.24.14.19v-.07l.1.22a.46.46 0 0 1 -.05-.2v.25a1.07 1.07 0 0 1 0-.25v.23a.65.65 0 0 1 0-.13l-.09.21a.41.41 0 0 1 0-.09l-.14.18.05-.05-.18.14-.2.09h.07-.23a.81.81 0 0 0 .34-.08h.12l-.19.08h-.21.06-.21l-.18-.08-.15-.12-.11-.15-.08-.17.07.17a.61.61 0 0 0 .19.2.24.24 0 0 0 .15.09.46.46 0 0 0 .28.06h.19l.17-.07a.61.61 0 0 0 .2-.19.5.5 0 0 0 .12-.24z"/><path d="m530.52 481.3a8.33 8.33 0 0 0 5.34 1.65.79.79 0 0 0 0-1.58 9.13 9.13 0 0 1 -4.62-1.3.71.71 0 1 0 -.72 1.23z"/><path d="m512.86 476.15a8.06 8.06 0 0 1 -4.06-5.39c-.33-2.3 1.24-4.92 3.56-5.11a2.39 2.39 0 0 1 1.65.41c.7.51 1 1.43 1.44 2.15s1.59 1.22 2.19.59a67.21 67.21 0 0 1 -1-10.21 2.25 2.25 0 0 1 .11-.93 2.57 2.57 0 0 1 .72-.86 10.07 10.07 0 0 0 3.07-8.65c4.76-.41 9.56-.3 14.29-1s9.5-2.22 13-5.47a10.59 10.59 0 0 0 3.67-7.1 4 4 0 0 0 -.75-2.73c-1-1.2-2.85-1.26-4.35-.85a19.35 19.35 0 0 0 -5.48 2.85 5.9 5.9 0 0 0 2.63-3.2 2.11 2.11 0 0 0 .07-1.4c-.36-.88-1.52-1-2.46-1a19.56 19.56 0 0 0 -14.77 7.86 1.44 1.44 0 0 0 1-2.16 2.33 2.33 0 0 0 -2.54-.83 6.58 6.58 0 0 0 -2.44 1.43c-2.06 1.67-4.2 3.63-4.64 6.24a2 2 0 0 1 -.3 1 1.78 1.78 0 0 1 -.78.5c-6.93 3-13.64 8.31-14.28 16.34-.72 9 4.64 17.71 8 25.73a20.11 20.11 0 0 0 3-7.55"/><path d="m513.18 475.61c-2.53-1.72-5.37-5.82-2.22-8.43a2.33 2.33 0 0 1 2.2-.57c.89.33 1.12 1.54 1.67 2.22a2.39 2.39 0 0 0 3.26.73 1 1 0 0 0 .4-1c-.36-2.17-.63-4.35-.79-6.55-.06-1-.11-1.95-.14-2.93 0-1.18.5-1.49 1.24-2.33a11.07 11.07 0 0 0 2.71-8.6l-.94 1c7.75-.59 15.85 0 23.07-3.37a16.57 16.57 0 0 0 7.64-6.73c1.32-2.42 2.27-6.59-.47-8.45-3.29-2.24-7.63.63-10.37 2.45-1.09.72-.1 2.45 1 1.75 1.74-1.07 4.14-3.75 3.06-6s-4.24-1.53-6.08-1.2a20.68 20.68 0 0 0 -12.89 8.06c-.59.79.38 1.61 1.14 1.49 2-.33 2.46-2.92 1.12-4.21-1.77-1.69-4.19-.56-5.8.7a14.91 14.91 0 0 0 -4.69 5.27 16.93 16.93 0 0 0 -.52 1.67 1.37 1.37 0 0 1 -.95 1c-1.09.49-2.16 1-3.19 1.61-3.92 2.22-7.58 5.33-9.6 9.43-2.22 4.49-2 9.59-.84 14.35 1.57 6.2 4.75 11.81 7.2 17.67a1 1 0 0 0 1.8.23 21.11 21.11 0 0 0 3.07-7.79c.2-1.15-1.53-1.65-1.77-.49a20.81 20.81 0 0 1 -3 7.29l1.8.23c-3.37-8.11-8.89-16.67-7.87-25.83a16 16 0 0 1 5.34-9.84 26.43 26.43 0 0 1 4.73-3.41c.78-.45 1.58-.87 2.39-1.26a6.65 6.65 0 0 0 2.28-1.24c.68-.79.6-2 1-2.94a10 10 0 0 1 2.16-2.76 17.59 17.59 0 0 1 2.69-2.2 2.43 2.43 0 0 1 1.79-.5c.47.12 1.18.9.29 1l1.15 1.49a18.52 18.52 0 0 1 8.71-6.35 17.25 17.25 0 0 1 5.18-1 2.7 2.7 0 0 1 1 .08c.7.34.48.92.2 1.52a5.16 5.16 0 0 1 -2 2.12l1 1.75c2-1.29 8.87-5.63 9.06-.51.14 3.79-3.11 7-6.11 8.78-7.13 4.26-15.89 3.46-23.84 4.19-.46 0-1 .4-.94.94a9.56 9.56 0 0 1 -.7 5.12 8.89 8.89 0 0 1 -1.53 2.35 6.64 6.64 0 0 0 -1.43 1.7 5.33 5.33 0 0 0 -.16 2.25c0 1.06.09 2.11.18 3.17q.25 3.17.8 6.29l.4-1c-.87.65-1.74-1.74-2.16-2.22a3.11 3.11 0 0 0 -2.32-1.06 4.64 4.64 0 0 0 -4.12 2.65c-1.94 3.75.75 7.4 3.95 9.28a.63.63 0 0 0 .64-1.08z"/><path d="m293.82 617.91q-12.4 15.15-23.3 31.49c-.69 1-1.4 2.23-1.09 3.43s1.55 1.93 2.68 2.47a75.67 75.67 0 0 0 18 6 69 69 0 0 0 -6.43 20.65 3.29 3.29 0 0 0 .05 1.65c.77 2 3.83.86 5.41-.61a119.29 119.29 0 0 0 26.86-37.08 5.56 5.56 0 0 0 .74-3.08 4.48 4.48 0 0 0 -1.35-2.36c-5.22-5.31-14.16-3.15-21.23-5.48a98.61 98.61 0 0 0 5.39-17.63 2.09 2.09 0 0 0 -3.53.1" fill="#fff"/><path d="m606.24 530a46.82 46.82 0 0 1 7.81-9.38 22.55 22.55 0 0 1 9.22-5.59c3.51-.94 7.55-.44 10.27 2a3.51 3.51 0 0 1 1.36 2.34c.05.92-.72 1.92-1.64 1.8a7.22 7.22 0 0 1 2.73 3.13c.45 1.34-.26 3.15-1.66 3.29a3.33 3.33 0 0 1 3.51 2.4c.3 1.52-1.23 3.2-2.72 2.76a2.54 2.54 0 0 1 1.39 3.35 4.13 4.13 0 0 1 -3.19 2.27 12.1 12.1 0 0 1 -4.06-.23 4.31 4.31 0 0 0 -2.11 0 4.45 4.45 0 0 0 -2 1.65c-1.9 2.36-4.17 4.83-7.18 5.22-2.85.37-5.59-1.27-7.72-3.21a12.89 12.89 0 0 1 -3.53-4.79 6.53 6.53 0 0 1 .39-5.77" fill="#fff"/><path d="m635.94 535.69c-.85 1.66-2.7 2-4.42 1.84s-3.37-1-5-.3c-1.33.54-2.14 1.88-3.06 2.91a12.78 12.78 0 0 1 -3.56 3c-3.29 1.74-6.72-.25-9.15-2.54s-4.53-5.66-2.73-9a1 1 0 0 0 -1.8-1c-2.22 3.45-.64 7.61 1.84 10.43s6.23 5.53 10.21 4.9a9.49 9.49 0 0 0 4.74-2.42 18.21 18.21 0 0 0 1.88-1.95 15.59 15.59 0 0 1 2-2.3c.94-.72 2.19-.31 3.26-.18a10.3 10.3 0 0 0 3.37-.05 4.89 4.89 0 0 0 3.54-2.69c.33-.75-.73-1.43-1.13-.66z"/><path d="m606.81 530.28c3.27-4.75 7.58-9.55 12.61-12.48a14.5 14.5 0 0 1 7.78-2.15c2.34.11 6.21 1.21 6.7 3.91.21 1.14 2.15.9 2-.27-.29-3.09-3.66-4.91-6.39-5.53a14.36 14.36 0 0 0 -9.19 1.11c-6.32 2.9-11.23 8.88-14.68 14.75a.65.65 0 0 0 1.13.66z"/><path d="m631.73 531.19a7.24 7.24 0 0 1 1.12.25l.54.19c-.12 0 0 0 0 0l.14.07.26.13.49.31.1.07c.05 0 .11.09 0 0l.22.18c.3.26.53.59.83.85a.72.72 0 0 0 1.13-.87 3.34 3.34 0 0 0 -.93-1 6.65 6.65 0 0 0 -1.14-.76 5.51 5.51 0 0 0 -2.66-.65.62.62 0 0 0 -.62.54.63.63 0 0 0 .45.69z"/><path d="m631.62 526.25a9.21 9.21 0 0 1 1.25.33 8.42 8.42 0 0 1 1.1.45 8.24 8.24 0 0 1 1.08.63c.36.25.59.48 1 .77a.74.74 0 0 0 1 0 .73.73 0 0 0 0-1 6.08 6.08 0 0 0 -1.15-.93 8.73 8.73 0 0 0 -1.22-.7 9 9 0 0 0 -2.87-.8.62.62 0 0 0 -.63.56.64.64 0 0 0 .46.71z"/><path d="m630.47 520.66a7.12 7.12 0 0 1 3.37 1.81c.16.15.32.3.46.46a2.09 2.09 0 0 1 .24.28.52.52 0 0 1 .1.11c.15.18-.08-.1.06.09a.75.75 0 0 0 1 .25.72.72 0 0 0 .25-1 8.2 8.2 0 0 0 -5.12-3.27.64.64 0 0 0 -.34 1.24z"/><g fill="#18c4ff"><path d="m520 535.62a38.53 38.53 0 0 0 15.07 18.38 33.24 33.24 0 0 0 23.87 4.5 30.79 30.79 0 0 0 12.91-5.7c.8-.61 0-2-.81-1.38a30.6 30.6 0 0 1 -22.8 5.49 34.56 34.56 0 0 1 -20-10.93 38.25 38.25 0 0 1 -7-10.85c-.28-.66-1.45-.18-1.18.5z"/><path d="m575.08 552.23a.68.68 0 0 0 0-1.35.68.68 0 0 0 0 1.35z"/><path d="m504.23 502.61a21.7 21.7 0 0 0 13.37 11 18 18 0 0 0 9 .17c2.1-.53 5.8-2 6.24-4.49.13-.75-.66-1.6-1.42-1.09s-1.45 1.59-2.39 2.2a10.31 10.31 0 0 1 -3.38 1.34 16.47 16.47 0 0 1 -8.13-.34c-5.09-1.48-9.17-5.18-12.16-9.44a.67.67 0 0 0 -1.15.67z"/><path d="m554.19 529.17q1.35 6.76 2.32 13.59c.33 2.35.66 4.71 1 7.06a53.2 53.2 0 0 0 .88 6.57.86.86 0 0 0 1.68-.22 39.75 39.75 0 0 0 -.7-6.6c-.32-2.35-.68-4.7-1.1-7q-1.25-6.88-2.83-13.7c-.18-.8-1.38-.46-1.22.33z"/><path d="m598.72 530.92c.38 3.14 1.2 6.26 1.87 9.34s1.25 5.89 2 8.8c1.3 4.88 3.18 10 7.22 13.32a.84.84 0 0 0 1.18-1.19c-3.48-3.72-5.26-8.4-6.52-13.26-.69-2.64-1.3-5.3-2-7.95-.77-3.07-1.4-6.25-2.46-9.24-.24-.69-1.46-.65-1.36.18z"/><path d="m71.32 353.1a213.24 213.24 0 0 1 37.73-.65.85.85 0 0 0 .6-1.43c-4.06-3.79-3.24-10.15-.21-14.32 3.84-5.28 10.84-5.8 16.53-3.41a22.19 22.19 0 0 1 9.07 7.14c.72 1 2.33.1 1.66-1-3.11-5-2.28-11.78 1.47-16.2 4-4.68 10.62-5.35 15.92-2.53a13.11 13.11 0 0 1 6.43 7.32l1.89-.8c-5.4-9.05-9.17-19.78-8.11-30.45a27.62 27.62 0 0 1 16.27-22.59 36.4 36.4 0 0 1 27.93-.57c9.77 3.66 18 10.79 24.37 18.95 8.21 10.56 13.58 23 18.89 35.15.48 1.11 2 .42 2.08-.57.15-2.24 2.38-9.53 5.75-7 1.16.87 2.29-1.09 1.14-1.94-5.22-3.89-8.87 5.14-9.13 9l2.09-.56c-9.18-21-19.95-44.49-42.36-54.15-9.39-4-20-4.76-29.64-1-9.43 3.65-16.64 11.28-18.86 21.26-2.71 12.21 1.55 25.15 7.8 35.6.58 1 2.27.34 1.89-.8-2.2-6.54-9.05-10.87-15.88-10.52-7 .35-12.37 5.87-13.56 12.62a15.16 15.16 0 0 0 2 10.83l1.66-1c-4.56-6-12.07-10.42-19.8-9.25a14.26 14.26 0 0 0 -11.8 13.05 10.65 10.65 0 0 0 3.36 8.95l.59-1.44a217.18 217.18 0 0 0 -37.73 1.06c-.8.09-.82 1.35 0 1.27z"/><path d="m322.24 306.41a482.09 482.09 0 0 0 67.33-2.18 1 1 0 0 0 .81-1.41c-3.32-5.69-.37-13 4.72-16.59 6.68-4.7 15.91-3 22.83.19a1 1 0 0 0 1.4-1.41c-9.41-16.18-4.32-37.93 10.46-49.08 14.94-11.25 35.65-11.35 51.3-1.54a53.82 53.82 0 0 1 20.14 23.05c.47 1 2.33.55 2.19-.6-2.28-17.93 5.78-39.48 23.48-46.71 9.88-4 21-2.49 30.31 2.25 10.21 5.17 18 13.6 23.74 23.41 6.76 11.61 10.66 24.58 14.51 37.37.35 1.15 2.41 1.4 2.6 0 .67-4.94 6.45-7.07 10.84-5.89 5.78 1.54 9.16 7.7 11.28 12.81a1.4 1.4 0 0 0 1.67.95c11.25-3.07 24.48 3.17 28.88 14.12.57 1.43 2.92.8 2.33-.65-4.94-12.28-19-19.61-31.93-16.09l1.67.95c-2.57-6.17-6.74-13.52-13.95-14.87-5.53-1-12.55 1.81-13.39 7.95h2.6c-6.93-23-15.1-48.46-37.28-61.11-9.58-5.47-21.17-7.93-31.91-4.61-9.34 2.88-16.83 9.79-21.62 18.19a51.53 51.53 0 0 0 -6.14 32.25l2.15-.91c-8.26-17.48-25.66-30.78-45.36-31.25-19.41-.51-38.22 11.13-43.76 30.19-3 10.25-2 21.64 3.42 30.9l1.4-1.4c-7.84-3.59-18.2-5.3-25.55.4-5.48 4.26-8.45 12.43-4.65 18.72l.81-1.42a466 466 0 0 1 -67.33 2.74c-.85 0-.85 1.29 0 1.32z"/><path d="m716 325.86a73.23 73.23 0 0 1 29.49.48 1 1 0 0 0 1.19-1.18 12 12 0 0 1 22-8.8c.5.8 2 .55 1.9-.51a37.4 37.4 0 0 1 2.49-17.17c2-4.86 5.14-10.18 10.36-11.95 4.62-1.58 9.56-.09 13.52 2.46 4.54 2.92 7.6 7.28 10.06 12 2.9 5.56 5 11.48 8.21 16.9a1.14 1.14 0 0 0 2.1-.57c.43-7.56 8.47-12.76 15.45-9.72a12.09 12.09 0 0 1 4.25 3.1 15.88 15.88 0 0 1 2.51 4.85c1.53 3.74 5 4.28 8.68 3.84 1.88-.22 3.7-.67 5.55-.09 1.47.47 3.38 1.56 2.67 3.33-.46 1.17 1.53 2 2 .86 1.7-3.8-2.32-6.42-5.66-6.84-3.75-.46-9.33 2.55-11.18-2.27a16.43 16.43 0 0 0 -3-5.49 14 14 0 0 0 -4.9-3.47 13 13 0 0 0 -11.77.63 14 14 0 0 0 -6.86 11.27l2.11-.57c-5.91-9.95-8.52-22.48-18.66-29.31-4.17-2.82-9.43-4.49-14.45-3.3-5.47 1.3-9.22 5.88-11.62 10.7a39 39 0 0 0 -3.9 20.82l1.9-.52a14 14 0 0 0 -25.67 10.34l1.18-1.18a71.35 71.35 0 0 0 -30.34.11c-.83.18-.48 1.41.34 1.26z"/><path d="m628.76 554.18q15.32-29.2 31-58.23t31.6-57.63c6-10.82 12.13-21.61 18.16-32.43a.78.78 0 0 0 -1.34-.79c-10.92 19.09-21.51 38.37-32.07 57.66s-20.92 38.5-31.2 57.85q-8.73 16.41-17.33 32.88c-.41.78.77 1.47 1.18.69z"/><path d="m732 402.35q-16.42 28.54-32.81 57.1l-9.17 16a.8.8 0 0 0 .47 1.16l9.39 2.1-.47-1.17q-11.55 22.13-23.06 44.28c-.46.88.87 1.66 1.33.78q11.58-22.12 23.1-44.26a.81.81 0 0 0 -.47-1.17l-9.31-2.06.47 1.17q16.34-28.59 32.6-57.23l9.08-16.05a.64.64 0 0 0 -1.11-.65z"/><path d="m719.36 556.5q11.65-24.4 21.35-49.69 2.74-7.2 5.33-14.45c.31-.87-1.06-1.24-1.37-.38q-9.07 25.41-20.1 50.09-3.09 6.91-6.34 13.77c-.36.76.76 1.43 1.13.66z"/><path d="m743.62 561.22a367.73 367.73 0 0 0 16.18-46.85.67.67 0 0 0 -1.3-.36 387.94 387.94 0 0 1 -16.1 46.87c-.32.76.91 1.08 1.22.34z"/></g><path d="m411.51 393.78a5.54 5.54 0 0 0 -5.39 5.78v3 152.61c0 2.42-.06 4.85 0 7.27a5.5 5.5 0 0 0 5.45 5.51h203.86a.93.93 0 0 0 .47-1.72 28.73 28.73 0 0 1 -11.06-17.91l-1.75-8.56-7.26-35.56-9.56-46.78-8.58-42-2.85-13.92c-.45-2.24-.82-4.52-1.37-6.73l-.06-.29c-.24-1.17-2-.68-1.78.49l3.52 17.25 8.27 40.45 9.69 47.48 7.68 37.6 2.07 10.12a33.11 33.11 0 0 0 5.78 13.81 30.3 30.3 0 0 0 6.33 6.16l.46-1.72h-197.22c-2.16 0-4.31 0-6.47 0a3.64 3.64 0 0 1 -3.77-3.67c0-.76 0-1.52 0-2.28v-160.29c0-2.17 1.06-4.16 3.54-4.26 1.18 0 1.19-1.89 0-1.84z"/></svg>